<svg xmlns="http://www.w3.org/2000/svg" width="256" height="256"><path fill="#1976D2" fill-opacity=".016" fill-rule="evenodd" d="M0 128.004v128.004l128.25-.254 128.25-.254.254-127.75L257.008 0H0zm.485.496c0 70.4.119 99.053.265 63.672s.146-92.98 0-128S.485 58.1.485 128.5"/><path fill="#1976D2" fill-opacity=".307" fill-rule="evenodd" d="M110 .871c0 .479-2.601 1.165-5.779 1.525-13.66 1.545-36.106 11.319-50.963 22.191C44.802 30.774 27 48.338 27 50.493c0 .737-.356 1.49-.79 1.674-.719.303-4.978 6.345-7.989 11.333-1.17 1.939-6.02 11.895-8.767 18-.743 1.65-1.873 5.025-2.512 7.5s-1.554 5.4-2.033 6.5c-1.135 2.605-2.892 13.96-2.901 18.75-.005 2.063-.489 3.75-1.077 3.75-1.088 0-.773 14.2.499 22.5.337 2.2 1.1 7.375 1.694 11.5s1.426 7.95 1.847 8.5 1.346 3.475 2.053 6.5 1.629 6.175 2.05 7 2.613 5.368 4.874 10.096 6.009 11.422 8.331 14.878 4.707 7.113 5.3 8.128C29.035 209.592 48.182 229 49.183 229c.437 0 3.387 1.95 6.556 4.333s6.549 4.618 7.511 4.968c.963.35 1.75 1.028 1.75 1.508 0 .479 1.8 1.465 4 2.191s4 1.626 4 2 1.912 1.3 4.25 2.058 5.375 1.952 6.75 2.654c1.375.703 4.075 1.563 6 1.913s3.994 1.025 4.597 1.501c2.541 2.003 18.616 3.838 33.784 3.856 14.923.017 34.623-2.067 37.119-3.927.55-.409 3.137-1.323 5.75-2.03s4.75-1.676 4.75-2.155.74-.87 1.645-.87c2.779 0 21.275-9.593 22.655-11.75.44-.687 1.34-1.252 2-1.255 3.038-.014 31.7-28.669 31.7-31.692 0-.662.563-1.563 1.25-2.003 2.312-1.479 11.75-19.546 11.75-22.492 0-.994.392-1.808.87-1.808.479 0 1.448-2.137 2.155-4.75s1.599-5.2 1.981-5.75c1.347-1.935 3.05-13.151 4.195-27.62 1.006-12.718.93-16.231-.578-27-1.529-10.918-5.592-26.54-7.641-29.38-.397-.55-1.292-2.769-1.989-4.93-1.363-4.228-6.877-14.139-10.662-19.164-1.282-1.702-2.331-3.662-2.331-4.356C233 51.429 205.609 24 203.989 24c-.671 0-3.306-1.524-5.855-3.386C192.642 16.601 179.929 10 177.692 10c-.865 0-1.845-.438-2.175-.973-.331-.535-2.495-1.454-4.809-2.042S165.6 5.493 164.5 4.976c-2.876-1.352-10.46-2.923-14.25-2.952C148.463 2.011 147 1.55 147 1c0-.631-6.833-1-18.5-1-10.175 0-18.5.392-18.5.871m17 11.507c0 .208-.681 2.008-1.513 4-.833 1.992-1.259 3.622-.948 3.622s1.041-1.364 1.622-3.032c.845-2.423 1.334-2.802 2.437-1.887.759.63 1.165 1.494.902 1.919s.276 1.387 1.198 2.137c1.855 1.508 1.768 1.073-.871-4.379-1.11-2.293-2.827-3.739-2.827-2.38m8.394 1.038c-.299.778-.381 2.691-.184 4.25.294 2.313.45 2.052.851-1.416.506-4.373.284-5.314-.667-2.834m-21.08 3.007c.11 2.327.751 4.108 1.575 4.379q1.393.46.591-.835c-.44-.711-1.148-2.682-1.575-4.38-.737-2.929-.767-2.886-.591.836m-7.731 1.451c.355 3.61 1.025 4.852 2.06 3.817.353-.354.171-1.216-.405-1.917-.575-.701-1.258-2.174-1.516-3.274-.259-1.1-.321-.482-.139 1.374m14.533-1.707c-.064 1.466-.678 2.893-1.366 3.171-.979.395-.972.521.031.583 1.587.098 2.544-2.203 1.92-4.613-.316-1.219-.507-.939-.585.859m27.982.982c-1.304 3.74-1.374 4.851-.305 4.851.437 0 1.274-1.8 1.861-4 1.262-4.727.03-5.401-1.556-.851m-7.861.611c-1.168 2.491-1.14 2.572.366 1.066.896-.896 1.464-2.109 1.263-2.695s-.935.147-1.629 1.629m14.163.857c0 3.014.159 3.298.907 1.621.543-1.216.543-2.684 0-3.654-.673-1.202-.907-.678-.907 2.033m-57.775.508c-.344 1.719-.611 3.856-.595 4.75.027 1.418.161 1.401 1.055-.133.563-.967.804-2.113.535-2.548-.268-.434-.118-1.388.334-2.12.976-1.578 3.046-.569 3.046 1.485 0 .793.45 1.441 1 1.441 1.658 0 1.134-1.525-1.314-3.826-3.016-2.832-3.319-2.761-4.061.951m62.855-2.092c-1.282 2.073-2.312 6.953-1.566 7.414.422.261 1.226-1.533 1.788-3.987 1.024-4.473.967-5.351-.222-3.427m-67.935 3.758c.407 2.117.155 3.869-.707 4.913-1.135 1.375-1.11 1.547.162 1.132 1.877-.613 2.495-5.196 1.02-7.56-.893-1.434-.985-1.141-.475 1.515M85.03 20.3c-.062 1.65 3.066 6.7 4.151 6.7.692 0 .543-.677-.386-1.75-.833-.962-2.014-2.65-2.625-3.75-.61-1.1-1.123-1.64-1.14-1.2m-7.529 3.698c-1.443 1.595-1.592 2.454-.738 4.25 1.017 2.14 1.062 2.106.904-.688-.126-2.219.446-3.258 2.333-4.236 1.578-.817 1.912-1.3.905-1.309-.877-.008-2.409.884-3.404 1.983m92.573-.136c-.715 1.336-.598 2.395.415 3.75 1.342 1.795 1.384 1.777.843-.367-.312-1.241-.01-2.928.672-3.75.816-.983.868-1.495.154-1.495-.598 0-1.536.838-2.084 1.862m-86.547 3.182c.355.574.044 1.811-.691 2.75-1.203 1.537-1.162 1.57.414.334 1.925-1.51 2.363-4.128.691-4.128-.582 0-.769.47-.414 1.044m97.987 1.929c-1.267 2.451-1.29 2.878-.13 2.433.775-.297 1.618-1.635 1.874-2.973.615-3.222.122-3.069-1.744.54M72 27.889c0 .489.922 1.952 2.049 3.25l2.05 2.361-1.575-3.25C72.974 27.052 72 26.141 72 27.889m113.964 2.275c-1.145 2.233-1.118 2.26.61.61.994-.95 1.533-2.001 1.197-2.336s-1.148.442-1.807 1.726M63.241 36.488c2.463 3.802 4.557 4.884 2.517 1.301C64.263 35.16 62.37 33 61.562 33c-.319 0 .436 1.569 1.679 3.488m132.529-.715c-.32 1.222-1.636 2.644-2.926 3.161-1.463.586-1.744.963-.749 1.003 2.034.08 5.244-3.419 4.683-5.103-.242-.727-.679-.32-1.008.939M60.61 39.5c.823 3.677 1.395 4.475 1.375 1.917-.009-1.054-.472-2.592-1.031-3.417-.741-1.095-.834-.691-.344 1.5m138.197-.75c-2.875 3.348-3.248 4.543-.976 3.123 1.122-.7 2.252-2.084 2.511-3.073.587-2.243.355-2.25-1.535-.05M53 39.845c0 .465.97 1.702 2.155 2.75L57.31 44.5l-1.77-2.75C53.715 38.914 53 38.378 53 39.845m61.66.203c-9.629 1.616-26.758 7.683-28.178 9.98-.33.535-.318.972.028.972 1.352 0 21.106-5.108 22.99-5.945C113.912 43.096 121.357 42 130.259 42c11.455 0 18.631 1.219 29.789 5.058 9.832 3.384 11.935 3.67 6.952.944-4.801-2.626-17.263-6.682-24.434-7.951-6.776-1.2-20.766-1.202-27.906-.003M200 44c0 1.1.173 2 .383 2s.619-.9.907-2c.287-1.1.115-2-.384-2-.498 0-.906.9-.906 2m6.95 1.306c-3.832 5.753-3.731 6.162.445 1.804 1.523-1.59 2.372-3.136 1.887-3.436s-1.534.435-2.332 1.632M48.268 46.581c.955 1.145 1.472 2.346 1.149 2.669-.324.323.35 1.09 1.497 1.704 3.123 1.671 2.515-.19-1.148-3.517-1.779-1.615-2.453-2-1.498-.856m162.906 3.733C209.01 52.618 208.179 57 209.906 57c.499 0 .666-.922.371-2.048-.343-1.312.293-2.93 1.768-4.5 1.267-1.349 2.079-2.452 1.804-2.452s-1.479 1.042-2.675 2.314M43 49.878c0 .482.581 1.359 1.291 1.949.976.81 1.327.595 1.438-.878.082-1.096-.482-1.949-1.291-1.949-.791 0-1.438.395-1.438.878m172.5 5.311-2 2.07 2.25-1.165c1.238-.64 2.25-1.599 2.25-2.129 0-1.277-.159-1.199-2.5 1.224M43.674 56.861c.309 1.182-.054 2.895-.806 3.807-1.171 1.419-1.152 1.587.132 1.166 1.812-.593 2.574-4.66 1.141-6.093-.705-.705-.852-.353-.467 1.12m112.399-1.183c-5.747 1.202-9.176 5.67-10.611 13.822-.546 3.102-.434 3.745.501 2.866 1.42-1.336 5.006-.633 5.107 1.001.038.623.721-.984 1.517-3.572C154.53 63.478 156.901 62 165.088 62c5.211 0 7.211.448 9.284 2.078l2.641 2.077 3.493-2.159c4.039-2.496 4.158-2.954 1.598-6.116-1.757-2.17-2.688-2.355-12.75-2.526-5.97-.101-11.946.044-13.281.324m-76.535 1.5c-.25.727-1.153 7.622-2.006 15.322s-1.777 15.688-2.053 17.75L74.976 94h14.111c17.431 0 20.048-.934 23.502-8.389l2.336-5.042-2.713-1.145c-3.213-1.357-4.212-.979-4.212 1.596 0 1.046-.985 2.82-2.189 3.941C103.957 86.689 102.296 87 94.934 87c-11.156 0-11.343-.21-10.397-11.714C85.657 61.677 85.391 62 95.475 62c9.778 0 11.557 1.038 13.628 7.95.806 2.691 1.732 3.977 2.741 3.807.9-.152 1.795.766 2.189 2.243.568 2.135.775 1.818 1.417-2.17 1.052-6.527-.114-12.166-3.097-14.971-2.366-2.226-3.351-2.377-17.434-2.681-11.703-.253-15.025-.037-15.381 1m48.129-.511c-.367.366-.667 4.085-.667 8.264v7.598l3.75-.015c3.742-.014 3.751-.024 4.412-5.014.365-2.75.702-6.462.75-8.25.084-3.117-.069-3.25-3.745-3.25-2.109 0-4.134.3-4.5.667m-91.352 2.255c.102 1.332.86 2.603 1.685 2.826q1.488.399.366-.422c-.624-.454-1.382-1.726-1.685-2.826-.434-1.577-.511-1.488-.366.422m182.7-1.172c.009.413.452 1.425.985 2.25.784 1.213.972 1.069.985-.75.008-1.237-.435-2.25-.985-2.25s-.993.337-.985.75M68.81 62.005C61.175 68.298 50.72 83.582 46.24 95c-4.561 11.625-5.652 17.897-5.652 32.5 0 10.177.477 15.775 1.747 20.5 3.119 11.603 8.557 23.824 9.432 21.198.198-.592-.298-2.116-1.1-3.387-2.725-4.315-6.533-17.277-7.73-26.311-3.124-23.577 3.987-48.054 18.867-64.943 1.817-2.062 3.842-3.829 4.5-3.925.658-.097 1.358-.616 1.556-1.154s1.147-2.103 2.108-3.478c2.716-3.884 4.183-7 3.295-7-.444 0-2.448 1.352-4.453 3.005M34 63.43c0 .275.9.981 2 1.57s2 .845 2 .57-.9-.981-2-1.57-2-.845-2-.57m184 1.176c0 1.727 1.098 1.774 3.325.144 1.537-1.125 1.456-1.264-.809-1.394-1.554-.089-2.516.389-2.516 1.25M29.2 67.2c-1.415 1.415-1.584 4.444-.293 5.242.498.309.67-.342.382-1.446s.033-2.679.715-3.501c1.482-1.785.899-1.998-.804-.295m163.389.8c.397.825 2.126 3.3 3.842 5.5 7.336 9.403 12.372 19.361 15.844 31.33 1.87 6.446 2.22 10.064 2.192 22.67-.038 17.242-2.194 27.377-8.105 38.096-3.495 6.337-3.871 7.404-2.61 7.404 1.865 0 8.2-14.607 10.841-25 2.653-10.436 2.649-30.602-.009-40.989-3.604-14.082-10.112-26.986-17.743-35.175-2.735-2.935-4.648-4.661-4.252-3.836M35.791 70.691c-.318 1.218-1.578 2.333-2.925 2.588-2.138.405-2.161.462-.238.585 2.407.154 4.773-2.162 4.142-4.055-.234-.702-.666-.313-.979.882m-12.712 7.437c-.043.895.709 2.245 1.671 3 1.521 1.192 1.604 1.175.634-.128-.613-.825-1.365-2.175-1.671-3-.464-1.255-.568-1.234-.634.128M31 79.25c0 .871-.562 1.81-1.25 2.088-.979.395-.972.521.031.583 1.426.088 2.818-2.655 1.843-3.631-.343-.343-.624.089-.624.96m197.638 2.25c.317.825.705 1.5.862 1.5s.545-.675.862-1.5c.347-.905.005-1.5-.862-1.5s-1.209.595-.862 1.5m4.926.207c-.542 1.425-.428 1.54.56.56.684-.679.991-1.486.683-1.793-.308-.308-.867.247-1.243 1.233M230 85.622c0 1.329.271 1.398 1.5.378.825-.685 1.5-1.415 1.5-1.622s-.675-.378-1.5-.378-1.5.73-1.5 1.622M22.14 87.914c-1.015.627-.921.956.419 1.47 2.082.799 2.578.456 1.61-1.11-.418-.676-1.273-.828-2.029-.36m102.558 2.722C122.783 92.551 124.205 94 128 94c2.889 0 4-.417 4-1.5 0-.825-.863-1.5-1.918-1.5s-2.541-.239-3.302-.531-1.698-.217-2.082.167M20 97c0 .55.477 1 1.059 1s.781-.45.441-1-.816-1-1.059-1-.441.45-.441 1m214.079 4.583c.048 1.165.285 1.402.604.605.289-.722.253-1.585-.079-1.917s-.568.258-.525 1.312M.36 127c0 5.225.169 7.363.375 4.75s.206-6.888 0-9.5S.36 121.775.36 127m69.005 10.035c-6.051 1.285-13.189 8.051-9.847 9.334.858.329 1.482 1.844 1.482 3.6 0 1.667.433 3.031.963 3.031.529 0 3.3-1.912 6.157-4.25 5.85-4.785 9.098-11.219 6.045-11.971-.916-.226-3.076-.111-4.8.256M57.5 138c.34.55 1.379.993 2.309.985 1.457-.014 1.484-.15.191-.985-1.958-1.266-3.282-1.266-2.5 0m24.5 4.378c0 .207.787.995 1.75 1.75 1.586 1.243 1.621 1.208.378-.378-1.307-1.666-2.128-2.195-2.128-1.372m40.564 3.329c-.542 1.425-.428 1.54.56.56.684-.679.991-1.486.683-1.793-.308-.308-.867.247-1.243 1.233m-36.94 13.832c-.965 2.514-.681 3.163.498 1.136.584-1.004.851-2.036.593-2.293-.257-.258-.749.263-1.091 1.157M231.2 159.2c-1.656 1.656-1.502 3.306.461 4.928 1.513 1.25 1.541 1.18.31-.797-1.116-1.792-1.123-2.443-.038-3.75 1.537-1.852 1.011-2.125-.733-.381m6.3 2.3c0 1.82.338 3.1.75 2.845s.75-1.535.75-2.845-.338-2.591-.75-2.845c-.412-.255-.75 1.025-.75 2.845m-215.687 2.183c.721.289 1.584.253 1.916-.079s-.258-.568-1.312-.525c-1.165.048-1.402.285-.604.604M23.2 166.2c-1.383 1.383-1.608 5.43-.344 6.211.47.291.642-.585.382-1.947s.085-3.148.767-3.97c1.481-1.784.898-1.997-.805-.294m63.8 3.359c0 .857.45 1.281 1 .941s1-1.041 1-1.559-.45-.941-1-.941-1 .702-1 1.559m144.607 1.023c-.793 2.065-.766 2.418.18 2.418.433 0 .855-.9.938-2 .181-2.404-.289-2.58-1.118-.418m-202.62 4.97c-1.368.758-1.812 1.361-.987 1.342 2.448-.057 5.443-1.502 4.421-2.134-.52-.321-2.065.035-3.434.792m.649 3.954c-.315.822-.164 1.494.336 1.494 1.356 0 2.198-1.777 1.149-2.425-.501-.31-1.169.109-1.485.931m201.928.201c-.542 1.425-.428 1.54.56.56.684-.679.991-1.486.683-1.793-.308-.308-.867.247-1.243 1.233M84.5 180c.34.55 1.266 1 2.059 1S88 180.55 88 180s-.927-1-2.059-1-1.781.45-1.441 1m-51.059 2.555c-1.864 1.494-1.852 1.512.309.465 1.237-.6 2.25-1.3 2.25-1.555 0-.765-.519-.544-2.559 1.09m34.638.028c.048 1.165.285 1.402.604.605.289-.722.253-1.585-.079-1.917s-.568.258-.525 1.312m-8.079.358c0 .518.445 1.216.989 1.552.566.35.734-.051.393-.941-.665-1.732-1.382-2.049-1.382-.611m-25.449 2.398c-1.655 1.21-1.673 1.4-.191 1.969 1.034.397 1.64.117 1.64-.756 0-.762.563-1.612 1.25-1.89s.774-.54.191-.583c-.582-.043-1.883.524-2.89 1.26M224 185.5c0 .825-.477 1.5-1.059 1.5s-.781.45-.441 1 1.068 1 1.618 1 .741-.419.425-.931c-.317-.512-.118-1.213.441-1.559 1.307-.808 1.318-2.51.016-2.51-.55 0-1 .675-1 1.5m-192.921 3.083c.048 1.165.285 1.402.604.605.289-.722.253-1.585-.079-1.917s-.568.258-.525 1.312M38 192c-2.159 1.689-2.245 1.959-.633 1.978 1.37.016 1.727.554 1.343 2.023-.307 1.175-.116 1.75.464 1.391.544-.335.724-1.662.401-2.948-.406-1.617-.045-2.654 1.169-3.361.966-.562 1.306-1.026.756-1.03s-2.125.871-3.5 1.947m32.5 2c.34.55.816 1 1.059 1s.441-.45.441-1-.477-1-1.059-1-.781.45-.441 1m144.5.941c0 .518.445 1.216.989 1.552.566.35.734-.051.393-.941-.665-1.732-1.382-2.049-1.382-.611m6.564.766c-.542 1.425-.428 1.54.56.56.684-.679.991-1.486.683-1.793-.308-.308-.867.247-1.243 1.233M44.432 197.11c-.929 1.504-1.237 8.89-.37 8.89.381 0 1.253-.675 1.938-1.5.982-1.183.985-1.5.011-1.5-.868 0-1.039-1.036-.577-3.5.66-3.52.271-4.449-1.002-2.39M48 202.059c0 .582.45.781 1 .441s1-.816 1-1.059-.45-.441-1-.441-1 .477-1 1.059m159.015.491c-.017 1.176 2.012 3.45 3.078 3.45.381 0 .943-.652 1.249-1.449.384-1 .076-1.265-.994-.854-.852.327-1.948-.034-2.434-.801-.486-.768-.89-.924-.899-.346m-152.26 5.95c-.263 1.375-.09 2.5.384 2.5.473 0 .861-1.125.861-2.5s-.173-2.5-.383-2.5-.599 1.125-.862 2.5M47 208.441c0 .793.408 1.693.907 2.001.498.309.671-.34.383-1.441-.611-2.335-1.29-2.63-1.29-.56M208.158 210c0 1.375.227 1.938.504 1.25.278-.687.278-1.812 0-2.5-.277-.687-.504-.125-.504 1.25m-3.545 4.183c.289.467.944.591 1.456.274 1.308-.808 1.161-1.124-.525-1.124-.801 0-1.22.383-.931.85m-141.949.567c-.25.412.174 1.33.941 2.039 1.159 1.072 1.395.945 1.395-.75 0-1.992-1.432-2.782-2.336-1.289m-3.498 2.126c-1.098.696-1.083.942.083 1.389.809.311 1.418-.059 1.418-.86 0-.773-.038-1.398-.084-1.39-.045.009-.683.396-1.417.861m8.458 2.663c-.965 2.514-.681 3.163.498 1.136.584-1.004.851-2.036.593-2.293-.257-.258-.749.263-1.091 1.157m-5.081.392c-.317.512-.118 1.213.441 1.559s1.016-.074 1.016-.931c0-1.757-.6-2.015-1.457-.628m124.231-.197c-.2.421-.07 2.566.289 4.766.699 4.281.989 3.973 1.264-1.345.163-3.138-.741-5.13-1.553-3.421m-115.056 4.845c-1.343 1.795-1.423 2.245-.328 1.825.801-.307 1.726-1.263 2.056-2.124.935-2.437.226-2.314-1.728.299M191 223.059c0 .582.45.781 1 .441s1-.816 1-1.059-.45-.441-1-.441-1 .477-1 1.059M78 224c0 .55.477 1 1.059 1s.781-.45.441-1-.816-1-1.059-1-.441.45-.441 1m4.2 4.2c-.66.66-1.139 2.348-1.064 3.75l.136 2.55.46-2.5c.253-1.375.922-3.062 1.486-3.75 1.31-1.595.564-1.632-1.018-.05m98.364.093c.376.986.935 1.541 1.243 1.233s.001-1.114-.683-1.793c-.988-.98-1.102-.865-.56.56m-12.18 1.149c-.304.792-.377 2.255-.161 3.25.244 1.129.586.587.911-1.442.544-3.406.191-4.259-.75-1.808m9.18.851c.376.986.935 1.541 1.243 1.233s.001-1.114-.683-1.793c-.988-.98-1.102-.865-.56.56m-84.882.359c-1.213 1.212-.724 3.015.818 3.015 1.683 0 1.842-.581.666-2.432-.441-.696-1.109-.958-1.484-.583m8.907 3.204c-.291.47.583.643 1.941.383s2.47-.645 2.47-.856c0-.773-3.899-.356-4.411.473m53.804.726c.334.87.639 2.107.677 2.75s.433.268.875-.832c.892-2.216.484-3.5-1.111-3.5-.576 0-.775.712-.441 1.582m-59.143.974c-.687.748-1.25 1.829-1.25 2.402 0 1.571 1.983 1.25 2.626-.425.87-2.267.017-3.492-1.376-1.977m65.421-.139c-.405 1.055-.279 2.375.28 2.934 1.43 1.43 1.829.568 1.09-2.351-.574-2.268-.701-2.322-1.37-.583m-50.671.861c0 1.487 3.94 5.115 4.714 4.341.288-.288-.204-1.252-1.095-2.143-.89-.89-1.619-2.037-1.619-2.547s-.45-.929-1-.929-1 .575-1 1.278m31.385.161c-.304.792-.078 2.254.501 3.25.895 1.539 1.058 1.323 1.084-1.439.032-3.428-.661-4.22-1.585-1.811m-42.306 1.144c.048 1.165.285 1.402.604.605.289-.722.253-1.585-.079-1.917s-.568.258-.525 1.312m17.56-.808c-.263.426-.111 2.338.339 4.25l.817 3.475.103-4.25c.099-4.109-.258-5.094-1.259-3.475M136 238.622c0 2.228.228 2.434 1.512 1.368 1.151-.955 1.241-1.583.378-2.623-1.597-1.924-1.89-1.73-1.89 1.255m-14.376-.083c-.965 2.514-.681 3.163.498 1.136.584-1.004.851-2.036.593-2.293-.257-.258-.749.263-1.091 1.157m31.492-.871c-.064.643-.407 1.993-.763 3-.502 1.421-.369 1.576.594.688.682-.629 1.026-1.979.763-3s-.53-1.33-.594-.688m-46.977 2.365c-1.298 1.082-1.93 1.967-1.405 1.967.526 0 1.771-.9 2.766-2 2.287-2.527 1.695-2.513-1.361.033M129 239.8c0 .99-.562 2.367-1.25 3.059-1.002 1.01-.903 1.127.5.593 1.522-.579 2.639-5.452 1.25-5.452-.275 0-.5.81-.5 1.8m-18.842 1.2c0 1.375.227 1.938.504 1.25.278-.687.278-1.812 0-2.5-.277-.687-.504-.125-.504 1.25m29.342-1c-.34.55-.141 1 .441 1s1.059-.45 1.059-1-.198-1-.441-1-.719.45-1.059 1"/><path fill="#1976D2" fill-opacity=".258" fill-rule="evenodd" d="M116 .968c-.825.551-2.625 1.014-4 1.029-3.415.037-20.891 4.448-27.833 7.025-5.691 2.113-13.938 5.958-17.667 8.237-13.662 8.349-18.842 12.318-27.879 21.366C31.89 45.364 23 56.143 23 57.565c0 .428-.641 1.488-1.424 2.356-1.899 2.107-11.574 21.508-11.582 23.226-.004.744-.641 2.571-1.418 4.059-1.245 2.386-2.228 6.272-5.638 22.294-1.843 8.661-1.008 33.929 1.454 44 .134.55.593 2.575 1.019 4.5 2.505 11.311 8.309 25.498 14.226 34.769 1.85 2.899 3.363 5.502 3.363 5.787 0 .284 2.162 3.337 4.804 6.784 6.468 8.439 16.197 18.045 24.694 24.383 3.851 2.872 7.55 5.688 8.219 6.258C62.538 237.532 81.73 247 83.052 247c.63 0 2.564.655 4.297 1.455s7.876 2.686 13.651 4.192c9.443 2.462 12.262 2.743 28 2.795 16.058.053 18.387-.173 28.262-2.748 5.918-1.543 12.331-3.462 14.25-4.263 1.918-.802 3.488-1.257 3.488-1.013 0 .998 21.952-10.999 27.928-15.262 7.064-5.039 21.913-19.368 26.587-25.656 1.636-2.2 3.24-4.225 3.565-4.5s2.394-3.65 4.597-7.5c6.749-11.793 11.311-22.482 13.87-32.5.913-3.575 2.153-8.3 2.757-10.5.615-2.243 1.102-12.345 1.108-23 .01-17.744-.176-19.694-2.822-29.5-1.559-5.775-3.699-12.75-4.756-15.5-2.415-6.285-9.835-21.336-11.268-22.857-.592-.629-2.874-3.787-5.071-7.018-5.627-8.274-18.614-21.416-27.559-27.887-17.065-12.345-35.173-19.846-57.874-23.973C138.045.308 117.794-.229 116 .968m-3.178 10.543c-.217.217-1.953.623-3.858.902s-5.489 1.008-7.964 1.62c-2.475.611-5.967 1.354-7.759 1.65s-3.507.938-3.809 1.427-1.387.89-2.41.89-3.134.642-4.691 1.426A943 943 0 0 1 73 24.001C63.964 28.379 60.116 30.8 53.932 36c-7.813 6.57-12.327 11.062-14.913 14.842-1.725 2.521-2.496 3.013-3.138 2-.468-.738-.924-.892-1.014-.342a63 63 0 0 0-.719 6.25C34.065 60.018 33.345 61 32.5 61c-.825 0-1.5.605-1.5 1.345s-.9 2.16-2 3.155c-2.706 2.449-2.592 6.863.226 8.734 1.972 1.31 2.089 1.779 1.022 4.122-1.24 2.72-3.611 3.484-4.807 1.549-.372-.603-.098-2.177.609-3.499.708-1.322.947-2.741.532-3.154-.907-.905-4.582 3.393-4.582 5.359C22 80.459 25.614 84 27.5 84c2.307 0 5.745-3.954 5.212-5.993-.308-1.18.528-2.548 2.408-3.937 1.584-1.172 2.88-3.016 2.88-4.1S38.45 68 39 68c1.439 0 1.234-2.739-.25-3.338-.687-.277-.238-.54 1-.583s3.192-1.021 4.342-2.171c2.013-2.013 2.062-3.04.352-7.408-.753-1.923-.706-1.932 1.215-.25 2.777 2.432 5.21 2.368 2.996-.079-2.309-2.551-2.1-2.89 1.456-2.368 1.979.29 3.42-.044 3.96-.918.685-1.108 1.133-.988 2.308.618.802 1.097 1.782 1.669 2.179 1.273s-.467-2.279-1.919-4.182c-3.117-4.087-3.447-5.635-.665-3.117 1.849 1.673 2.135 1.681 4.5.132 1.821-1.193 2.535-2.556 2.558-4.882.03-3.052.111-3.122 1.498-1.288 1.445 1.911 1.51 1.907 4.406-.234s2.949-2.144 3.569-.189C72.851 40.107 74.004 41 75.067 41c2.19 0 2.547-1.986.691-3.842-.988-.988-.967-1.411.107-2.075.862-.532 1.098-1.623.655-3.021-.624-1.964-.496-2.064 1.242-.979 2.552 1.594 6.94.431 7.727-2.049.486-1.531 1.233-1.84 3.403-1.406 1.819.364 3.33.007 4.37-1.033.874-.874 2.24-1.34 3.035-1.035.797.306 1.718-.158 2.055-1.035.409-1.067 1.686-1.528 3.879-1.4 6.297.365 17.671-1.302 18.889-2.77.861-1.037 1.404-1.125 1.908-.31.52.842 1.226.814 2.706-.111 1.259-.786 2.699-.934 3.884-.399 1.035.468 2.332.92 2.882 1.005s1.789.496 2.752.914c3.099 1.346 6.674-.294 8.122-3.724l1.362-3.23.754 3.806c.632 3.19.39 4.193-1.495 6.199l-2.248 2.393 2.876.635c1.583.349 3.396.79 4.029.982 1.812.546 2.369-.607 1.278-2.646-.843-1.575-.636-1.869 1.312-1.869 1.272 0 3.363-.735 4.645-1.634 2.244-1.571 2.307-1.552 1.656.5-.539 1.696-.134 2.339 1.974 3.14 2.712 1.032 4.483.611 4.483-1.065 0-.518-.648-.941-1.441-.941s-1.759-.515-2.149-1.145c-.488-.79.113-.988 1.941-.639 1.816.347 2.649.079 2.649-.855 0-.748-.675-1.361-1.5-1.361s-1.5-.408-1.5-.906.849-.685 1.887-.413c1.038.271 2.208-.026 2.6-.66.945-1.528.661-1.722-3.737-2.543-3.61-.674-3.753-.594-3.84 2.161l-.09 2.861-.922-3.186c-1.058-3.656-2.98-4.539-10.898-5.01-3.025-.179-7.75-.461-10.5-.627-3.779-.227-5.166.081-5.68 1.261-.586 1.348-.689 1.355-.75.052-.056-1.207-1.759-1.547-8.462-1.692-4.615-.1-8.569-.004-8.786.213m-4.246 4.987c.613 3.13 1.144 4.122 1.832 3.419.224-.229-.229-1.767-1.006-3.417l-1.413-3zm7.439-.748c.009.962.386 2.334.839 3.047 1.122 1.77 3.606-1.155 2.789-3.284-.803-2.093-3.646-1.907-3.628.237M137 16.5c0 2.596 2.409 3.524 3.246 1.25.688-1.872-.228-3.75-1.829-3.75-.845 0-1.417 1.01-1.417 2.5m-13.921.083c.048 1.165.285 1.402.604.605.289-.722.253-1.585-.079-1.917s-.568.258-.525 1.312m8.936-.392c-.008.93.435 1.969.985 2.309 1.266.782 1.266-.542 0-2.5-.835-1.293-.971-1.266-.985.191m19.675-.548c-.379.38-.69 1.74-.69 3.024 0 2.672 2.718 3.232 3.668.755.658-1.715-1.853-4.903-2.978-3.779m16.389 4.209c-.496.927-1.218 3.37-1.604 5.43-.387 2.061-1.39 4.131-2.229 4.6-2.247 1.258-.824 2.74 4.514 4.704 5.856 2.155 18.065 9.463 24.74 14.808 7.288 5.837 23.781 22.992 22.926 23.846-.15.15 1.07 1.845 2.711 3.766 2.681 3.141 2.913 3.242 2.292.994-.38-1.375-1.532-3.694-2.56-5.154s-1.851-3.035-1.83-3.5 2.059-2.332 4.527-4.148 4.206-3.758 3.862-4.315c-.383-.619-1.413-.308-2.649.802-2.006 1.8-2.017 1.779-1.313-2.435.39-2.337.419-4.25.063-4.25-1.068 0-8.529 6.27-8.529 7.167 0 .458.675.833 1.5.833s1.5-.402 1.5-.893.656-1.145 1.457-1.452c1.189-.456 1.276-.082.47 2.037-1.658 4.361-1.924 4.407-5.482.951-4.007-3.891-4.389-5.546-1.136-4.924 2.68.512 10.203-5.682 7.87-6.481-.727-.249-2.331.496-3.565 1.655-4.421 4.153-6.645.898-2.443-3.575 1.193-1.27 1.862-2.619 1.485-2.996-.917-.916-7.656 5.683-7.656 7.497 0 1.154-.286 1.189-1.5.181-.825-.685-1.5-1.728-1.5-2.318 0-1.866 5.169-6.554 6.615-6 2.021.776 1.707-2.081-.444-4.027-2.36-2.136-4.58-2.164-3.768-.048.735 1.915-4.962 8.916-5.952 7.314-.867-1.403 1.382-6.643 3.141-7.318 2.07-.794 1.715-4.016-.682-6.185-2.053-1.857-2.117-1.855-3.519.095a75 75 0 0 1-2.91 3.748c-.815.969-1.481 2.501-1.481 3.405 0 1.498.168 1.492 1.901-.076 2.384-2.158 3.334-.833 1.654 2.308-.832 1.553-1.515 1.975-1.981 1.222-.391-.633-2.255-1.796-4.142-2.584-3.736-1.561-4.898-4.732-1.399-3.817 4.639 1.213 7.999-6.544 4.396-10.148-2.686-2.685-5.202-1.869-7.649 2.482-2.056 3.656-2.574 3.996-5.28 3.462-1.65-.325-4.269-.757-5.82-.958-1.552-.202-3.433-1.198-4.182-2.212-1.227-1.663-1.096-1.878 1.321-2.179C177.564 30.7 180 28.2 180 24.824c0-2.952-.346-3.202-7.759-5.602-2.731-.884-3.406-.782-4.162.63M88 22.25c0 .898.48 1.929 1.067 2.291 1.715 1.06 1.883.111.351-1.984C88.232 20.935 88 20.885 88 22.25m-7.165 1.423c-1.849.49-3.149 3.009-2.279 4.417.914 1.479 3.434 1.048 2.845-.486-.295-.771.49-2.115 1.754-3 2.226-1.559 1.361-1.906-2.32-.931m91.866-.041c-.385.386-.701 1.558-.701 2.604 0 1.402.593 1.819 2.25 1.584 1.471-.209 2.25-1.008 2.25-2.306 0-1.984-2.472-3.208-3.799-1.882m9.299.928c0 .755-.756 2.957-1.679 4.894-1.54 3.228-1.13 6.473.487 3.857.384-.622 2.047-1.284 3.695-1.471 4.971-.564 4.56-6.806-.536-8.138-1.25-.327-1.967-.015-1.967.858M127 25c-1.09.704-.27.969 3 .969s4.09-.265 3-.969c-.825-.533-2.175-.969-3-.969s-2.175.436-3 .969m-24 3c-1.282.828-1.246.972.25.985.963.008 1.75-.435 1.75-.985 0-1.22-.113-1.22-2 0m81 .559c0 .857.457 1.276 1.016.931.559-.346.758-1.047.441-1.559-.857-1.387-1.457-1.129-1.457.628m-28.559.973c1.068.807 3.035 1.468 4.373 1.468 2.047 0 2.235-.237 1.186-1.5-.685-.825-2.652-1.486-4.372-1.468-2.967.03-3.028.107-1.187 1.5m-90.036 2.614c-1.895 2.134-1.893 2.139.345.964 1.237-.649 2.25-1.615 2.25-2.145 0-1.421-.479-1.203-2.595 1.181m2.159 2.783c-1.037 1.146-1.577 2.391-1.201 2.768.949.949 3.959-2.232 3.477-3.676-.247-.743-1.083-.41-2.276.908m122.103-1.262c-1.207 1.207-.697 3.108 1.011 3.763 1.967.755 4.868-1.737 3.881-3.334-.746-1.208-3.842-1.479-4.892-.429M56.276 38.722c-.911.318-.815 1.052.376 2.87 1.216 1.855 1.917 2.18 2.915 1.352 2.319-1.924-.289-5.27-3.291-4.222m57.117.305c-8.82 1.581-20.652 5.779-27.132 9.625-3.432 2.037-6.018 3.924-5.748 4.194.27.271-.229 1.288-1.11 2.262-1.138 1.257-2.145 6.638-3.478 18.581-1.032 9.246-1.887 17.598-1.9 18.561C74.002 93.843 75.398 94 89.55 94c11.738 0 16.247-.361 18.397-1.473 8.481-4.385 11.586-29.816 4.337-35.518-2.245-1.766-4.05-2.009-14.919-2.009C89.788 55 85 54.613 85 54c0-1.437 23.569-1.297 26.316.155 1.201.636 4.063 2.688 6.361 4.561l4.176 3.405 1.951-4.41c1.667-3.769 2.47-4.494 5.533-4.991 4.259-.691 10.561.852 11.296 2.765.994 2.591 3.382 2.437 7.734-.5 5.734-3.87 13.108-5.473 18.499-4.021 6.942 1.869 5.844 3.036-2.857 3.036-9.22 0-12.606 1.294-16.401 6.269-4.34 5.69-6.003 19.344-3.41 27.999 1.785 5.955 4.79 6.87 20.006 6.089 6.763-.347 13.082-1.035 14.043-1.528 3.075-1.577 5.826-8.642 6.899-17.71 1.542-13.046-.679-19.476-7.178-20.775-1.535-.307-3.002-1.368-3.261-2.357-.591-2.261-12.712-8.144-22.707-11.021-8.497-2.446-29.811-3.517-38.607-1.939m13.791 16.293c-.519.649-1.247 4.78-1.617 9.18-.816 9.705-2.477 24.171-3.129 27.25-.448 2.119-.155 2.25 5.043 2.25 3.035 0 5.519-.191 5.519-.425s.904-8.854 2.009-19.158c1.105-10.303 1.749-18.992 1.432-19.31-1.118-1.118-8.324-.952-9.257.213m-88.82 2.173c-.346.903-.15 2.121.436 2.707 1.524 1.524 4.41.131 4.012-1.935-.443-2.302-3.647-2.858-4.448-.772m27.729 6.257C38.543 90.976 31.32 131.576 47.905 166c2.724 5.655 7.083 11.137 7.09 8.917.003-.871-.327-1.915-.732-2.321-.406-.405-.743-1.268-.75-1.917-.007-.648-1.438-4.554-3.179-8.679s-3.479-9.187-3.861-11.25c-.625-3.369-.481-3.75 1.416-3.75 1.79 0 2.111-.598 2.111-3.927 0-5.423 3.775-8.497 9.5-7.736 2.496.332 4.94.006 6.5-.867 1.375-.77 3.963-1.415 5.75-1.435 1.787-.019 3.25-.485 3.25-1.035s.689-1 1.531-1c.843 0 1.791-.675 2.107-1.5s1.402-1.5 2.412-1.5 2.517-.972 3.349-2.159c1.247-1.781 1.777-1.94 3.021-.908 1.32 1.096 1.436.644.93-3.628-.511-4.308-.258-5.261 2.155-8.129 3.329-3.955 6.81-5.836 13.436-7.257 2.773-.594 5.266-1.446 5.542-1.892s-6.242-.869-14.483-.94c-8.241-.072-16.091-.551-17.444-1.066C74.518 100.866 72 96.206 72 91.739c0-3.728 3.601-29.946 4.599-33.489 1.225-4.344-2.536-2.376-10.506 5.5m20.496.105c-.29.471-.836 5.239-1.213 10.596-.55 7.829-.409 9.915.72 10.629 1.56.988 13.205 1.214 16.532.322 5.188-1.393 7.18-16.451 2.761-20.87C104.257 63.4 101.672 63 95.488 63c-4.604 0-8.608.385-8.899.855m70.64-.186c-2.173.875-4.228 6.024-4.875 12.218-.572 5.469-.417 6.141 1.967 8.525 2.281 2.281 3.402 2.588 9.445 2.588 10.403 0 12.898-3.147 12.028-15.171-.56-7.742-1.927-8.856-10.735-8.75-3.608.043-7.131.309-7.83.59m32.804 1.581c.018.688 1.363 3.05 2.989 5.25 15.062 20.386 19.812 32.686 20.66 53.5.389 9.566.113 14.261-1.174 20a998 998 0 0 0-2.548 11.656c-.475 2.286-2.457 6.646-4.404 9.689-2.104 3.29-3.29 6.184-2.925 7.137.995 2.593 2.688 1.214 5.602-4.563 7.063-14.005 10.38-30.23 9.389-45.919-.696-11.018-2.427-18.318-7.009-29.564-5.552-13.626-20.753-33.706-20.58-27.186m32.727 1.044c-2.057 1.213-3.745 2.769-3.75 3.456-.016 2.03 1.417 1.462 5.573-2.208 4.465-3.943 3.67-4.487-1.823-1.248m-191.193.632c-2.008 2.219-1.739 5.574.447 5.574.817 0 1.93-1.013 2.473-2.25S35.873 68 36.36 68c.486 0 .325-.675-.36-1.5-1.627-1.961-2.334-1.893-4.433.426m193.618 2.692C222.883 70.99 221 72.559 221 73.104s1.166 2.072 2.591 3.392c1.425 1.321 2.298 2.875 1.941 3.453-.358.578.021 1.051.842 1.051 1.676 0 3.103 3.419 2.103 5.038-.359.581.261 3.001 1.378 5.378 2.317 4.927 5.378 6.317 8.873 4.027 2.537-1.663 2.798-3.195 1.157-6.797-1.068-2.342-1.26-2.387-4.468-1.047-5.375 2.246-5.802 1.668-2.025-2.744 1.951-2.279 3.309-4.529 3.019-5-.291-.47-2.387-.855-4.659-.855h-4.129l2.188-2.039c2.441-2.274 2.784-5.595.842-8.15-1.189-1.563-1.594-1.504-5.468.807m1.011 2.234c-1.727 1.302-1.975 1.969-1.069 2.875 1.447 1.447 4.873-.103 4.873-2.203 0-2.251-1.386-2.496-3.804-.672m-133.644.398c-1.309 4.251-1.464 7.046-.49 8.866.934 1.745 1.692 1.966 4.774 1.395 4.489-.833 6.791-2.781 7.47-6.321.745-3.879-.887-5.19-6.46-5.19-3.055 0-5.054.472-5.294 1.25M163.5 74c-.34.55.309 1 1.441 1S167 74.55 167 74s-.648-1-1.441-1-1.719.45-2.059 1m67.5 8c0 .55.45 1 1 1s1-.45 1-1-.45-1-1-1-1 .45-1 1M18.987 85.032c-.691 1.668-1.083 3.144-.872 3.28.212.136 2.164 1.058 4.339 2.049 3.783 1.723 4.01 1.724 5.25.029.713-.975 1.286-2.699 1.274-3.831-.021-1.932-.143-1.905-1.978.441l-1.956 2.5-.022-2.75C25.01 85.237 24.55 84 24 84s-1 .675-1 1.5-.459 1.5-1.019 1.5c-.588 0-.753-1.058-.392-2.5.887-3.531-1.086-3.128-2.602.532M234.75 90.08c-2.575 1.5-2.178 3.92.643 3.92 2.377 0 4.128-2.348 3.051-4.09-.709-1.147-1.495-1.111-3.694.17M15.947 93.639c-1.2 3.157-1.448 2.854 3.817 4.668 4.303 1.482 6.775.654 3.507-1.175-1.571-.88-1.433-1.132 1.229-2.24l3-1.249-2.5-.406c-1.375-.224-2.927-.818-3.45-1.322-1.838-1.77-4.597-.921-5.603 1.724m2.053.802c0 .857.45 1.559 1 1.559s1-.423 1-.941-.45-1.219-1-1.559-1 .084-1 .941m219 3.28c-3.504.628-4.353 1.736-3.608 4.706.763 3.04 2.608 3.446 2.608.573 0-2.464.865-2.547 2.608-.25 1.23 1.621 1.331 1.584 1.36-.5.018-1.237.482-2.25 1.032-2.25s1 .765 1 1.7c0 1.095.344 1.356.967.733.532-.532.705-1.972.384-3.2-.578-2.209-1.389-2.402-6.351-1.512m-223 2.24c0 1.296 7.743 3.316 9.218 2.404.724-.447-.145-1.199-2.273-1.968C16.694 98.861 14 98.692 14 99.961M14 105c-2.048 2.048-2.665 5.471-1.155 6.404.465.288 2.655.812 4.865 1.166 3.76.601 4.064.467 4.701-2.07.84-3.347-1.616-7.5-4.434-7.5-1.087 0-2.877.9-3.977 2m1.52 1.623c-1.955 1.955-1.096 3.377 2.039 3.377 1.728 0 2.441-.553 2.441-1.893 0-2.538-2.573-3.391-4.48-1.484m224.038 1.127c-1.492 2.725-1.512 2.729-2.148.5-.838-2.932-2.41-2.899-2.41.05 0 5.165 4.554 6.278 6.213 1.519 1.092-3.133 1.122-3.145 1.978-.831.614 1.659 1.183 2.038 1.932 1.289 1.363-1.363-.585-5.277-2.626-5.277-.788 0-2.111 1.237-2.939 2.75M121.11 119.367c-.863 1.04-.773 1.668.378 2.623.831.69 1.512 1.65 1.512 2.132 0 1.484-4.239.972-6.131-.741-1.302-1.178-2.752-1.438-5.329-.954-1.947.365-3.54 1.082-3.54 1.593 0 1.161-5.545 4.101-6.304 3.342-.307-.306-.316-1.189-.02-1.96.324-.844-.101-1.402-1.069-1.402-1.979 0-1.983.37-.068 6.818 1.313 4.422 1.899 5.182 4 5.182 1.353 0 2.461.45 2.461 1s-.675 1-1.5 1-1.5.31-1.5.688c0 1.641 4.7 7.34 6.992 8.48 1.38.685 3.276 1.88 4.214 2.654 1.477 1.22 1.923 1.192 3.322-.207.888-.888 2.033-1.615 2.543-1.615s1.829-.9 2.929-2c1.527-1.527 2-3.333 2-7.64 0-4.198.447-5.979 1.75-6.968 1.515-1.15 1.536-1.333.161-1.36-2.037-.041-3.911-4.151-3.911-8.579 0-3.639-1.001-4.361-2.89-2.086m18.89 8.692c0 .582.45.781 1 .441s1-.816 1-1.059-.45-.441-1-.441-1 .477-1 1.059m-20.823 1.494c.452 2.172 2.227 2.305 2.633.197.21-1.095-.28-1.75-1.31-1.75-.961 0-1.512.647-1.323 1.553m-13.538.141c-1.195 1.195-.645 3.306.861 3.306.825 0 1.5-.648 1.5-1.441 0-1.671-1.427-2.798-2.361-1.865m10.565 3.261c.671 1.075 1.36 1.814 1.532 1.643.592-.593-.954-3.598-1.851-3.598-.496 0-.353.88.319 1.955m23.046-1.163c-3.094.319-3.259.547-3.437 4.771-.442 10.437-.704 9.742 4.687 12.437 4.282 2.141 5.045 2.966 5.313 5.75.202 2.087.852 3.25 1.818 3.25 1.02 0 1.311-.608.903-1.893-.432-1.362.538-2.976 3.455-5.752 2.804-2.669 4.242-5.001 4.656-7.558.551-3.392.378-3.753-2.095-4.374-1.574-.395-3.165-.208-3.823.45-1.649 1.649-2.727 1.378-2.727-.686 0-3.086-5.049-6.776-8.75-6.395m-125.679 1.779c-.864.865-1.571 2.145-1.571 2.845 0 1.69 3.266 4.584 5.174 4.584 1.705 0 4.826-3.076 4.826-4.757 0-1.733-2.958-4.243-5-4.243-1.021 0-2.564.707-3.429 1.571m224 0c-.864.865-1.571 2.183-1.571 2.929 0 1.953 2.83 4.5 5 4.5s5-2.547 5-4.5-2.83-4.5-5-4.5c-1.021 0-2.564.707-3.429 1.571M95 135.059c0 .582.45.781 1 .441s1-.816 1-1.059-.45-.441-1-.441-1 .477-1 1.059m26-.059c0 .55.675 1 1.5 1s1.5-.45 1.5-1-.675-1-1.5-1-1.5.45-1.5 1m-56.366 2.2c-2.618 1.951-2.947 1.992-3.8.468-1.237-2.21-5.112-2.124-7.179.161-2.022 2.234-2.159 5.764-.253 6.495 1.757.674 2.598-.131 2.598-2.491 0-1.166.727-1.833 2-1.833 2.117 0 2.689 1.456.985 2.509-1.558.963-3.985 7.398-3.985 10.566 0 3.213 1.89 7.925 3.18 7.925.472 0 .596-1.044.276-2.319-.5-1.992.267-2.843 5.436-6.033C69.881 148.951 76 142.697 76 140.272c0-2.489 2.714-1.211 5.933 2.794 1.797 2.237 3.509 3.826 3.803 3.531.97-.97-2.737-5.585-6.922-8.617-4.987-3.612-10.01-3.889-14.18-.78m73.949-1.334c-.431.697-.513 1.537-.183 1.867.895.895 1.871-.421 1.387-1.871-.338-1.016-.574-1.016-1.204.004m-20.806 1.304c-.244.73-1.65 1.194-3.226 1.064-2.38-.197-2.61-.009-1.55 1.267 1.788 2.155 4.754 1.845 5.523-.576.362-1.142.439-2.295.171-2.563-.267-.268-.681.096-.918.808m22.45 2.588c-1.25 1.297-2.011 2.782-1.691 3.3.972 1.574 2.464 1.054 2.464-.858 0-.99.532-2.332 1.183-2.983s.989-1.326.75-1.501c-.238-.174-1.456.744-2.706 2.042m40.485.876c-2.65 1.126-4.226 2.661-5.25 5.11-1.721 4.121-1.821 5.256-.462 5.256.55 0 1-.81 1-1.8 0-2.488 1.949-4.2 4.783-4.2 2.826 0 2.533 2.01-.517 3.545-1.586.798-1.851 1.446-1.121 2.75.97 1.733-.499 2.56-1.544.869-.284-.46-1.542-.76-2.795-.668-1.638.121-2.535 1.062-3.192 3.353-1.118 3.899-.631 4.488 2.67 3.233 1.931-.734 2.856-.618 3.761.472.66.795 2.405 1.446 3.877 1.446 3.134 0 5.078 1.637 5.078 4.277 0 1.509-.638 1.821-3.264 1.595-1.796-.155-3.804.052-4.464.46-.682.421-2.077-.137-3.236-1.296-1.12-1.12-2.486-2.036-3.036-2.036s-1.036-.787-1.079-1.75c-.045-1.007-.29-1.229-.576-.523-.805 1.989 5.863 9.308 7.905 8.678 1.152-.355 1.75-.004 1.75 1.028 0 .862.436 1.567.969 1.567s.709-.675.393-1.5c-.669-1.741.743-1.995 2.32-.418.777.777 2.458-.213 5.95-3.5 3.937-3.706 4.587-4.763 3.397-5.528-.809-.52-1.122-1.294-.696-1.721.427-.426 1.177-.126 1.667.667s1.028 1.23 1.196.971c3.472-5.374 4.798-12.217 3.183-16.426-1.606-4.185-12.604-6.489-18.667-3.911m-28.253 1.433c-.363.586-.419 1.306-.126 1.6.717.716 2.667-.546 2.667-1.726 0-1.278-1.726-1.193-2.541.126m-36.845.749c-.414.669-1.284.898-1.933.508-.65-.389-.548.073.227 1.026 1.522 1.876 3.643.802 2.888-1.463-.333-.997-.6-1.013-1.182-.071m-38.619.934c-.002.412-1.558 2.441-3.456 4.508-3.293 3.585-3.337 3.729-.963 3.134 2.729-.685 3.981-.787 6.791-.55 1.432.121 1.754.746 1.383 2.683-.411 2.152-.189 2.432 1.502 1.895 1.403-.445 1.854-.232 1.538.725-.246.745-1.536 1.506-2.868 1.69s-2.849.746-3.372 1.25c-1.433 1.38-3.138 1.103-1.75-.285 1.539-1.539 1.522-2.543-.05-3.083-.687-.237-.463-.312.499-.167 2.14.321 2.964-.832 2.136-2.99-.653-1.7-1.874-1.551-8.066.98-3.086 1.262-3.148 1.406-2.086 4.867.858 2.796 1.381 3.329 2.42 2.466.729-.605 1.035-1.568.681-2.141-.373-.604-.159-.742.511-.327 1.804 1.114 1.373 2.635-1.355 4.781-1.38 1.086-2.253 2.388-1.941 2.894.85 1.374 11.299 1.111 13.088-.33 6.243-5.025 6.643-5.737 6.047-10.77-.469-3.956-1.278-5.506-4.379-8.389-3.57-3.319-6.299-4.547-6.31-2.841m112.323-.099c.358.358-.13 1.244-1.084 1.968-1.543 1.172-1.359 1.321 1.671 1.349 3.342.031 3.372-.005 1.595-1.968-.995-1.1-2.04-2-2.322-2-.281 0-.218.293.14.651M143.5 146c-.34.55-.141 1 .441 1s1.059-.45 1.059-1-.198-1-.441-1-.719.45-1.059 1m46.5 3.3c0 1.855 2.094 3.7 4.2 3.7 2.056 0 2.376-2.024.6-3.8-1.6-1.6-4.8-1.533-4.8.1m-73.75 4.384c-.687.265-1.25.943-1.25 1.506s.675.765 1.5.448c.825-.316 1.5-.177 1.5.31s-.526 1.061-1.17 1.275c-.836.279-.693 1.345.5 3.737 1.803 3.615 2.196 7.04.807 7.04-.475 0-1.647-2.491-2.604-5.536-1.474-4.686-1.968-5.348-3.219-4.31-1.133.94-1.911.954-3.342.061-1.59-.994-2.231-.698-4.343 1.999-2.221 2.838-2.329 3.376-1.053 5.198.783 1.118 1.431 3.17 1.439 4.561.02 3.213 1.463 5.68 2.419 4.134 1.115-1.804 3.573-1.264 4.398.967.422 1.141 1.195 2.039 1.718 1.995.522-.043 1.311 1.386 1.752 3.176s1.48 4.729 2.309 6.531 1.232 4.277.895 5.5c-.595 2.163-.553 2.157 1.518-.232 1.377-1.587 1.965-3.324 1.662-4.908-.599-3.129 2.447-6.596 5.168-5.884 1.69.442 2.183-.365 3.554-5.825.876-3.486 1.592-7.933 1.592-9.883s.45-3.544 1-3.544 1 .54 1 1.2c0 .904.284.916 1.149.051 1.951-1.951-1.494-5.798-6.736-7.524-4.09-1.347-4.919-1.364-6.151-.131-1.233 1.232-1.65 1.167-3.094-.486-.917-1.05-2.23-1.692-2.918-1.426m71.417-.017c-1.367 1.367-.59 2.041 1.821 1.58 1.369-.262 2.242-.874 1.941-1.361-.644-1.044-2.812-1.17-3.762-.219M19.05 156.44c-1.875 2.258-.869 6.856 1.788 8.173 1.424.706 1.913 1.423 1.25 1.832-2.022 1.25-1.184 5.446 1.429 7.158 1.84 1.206 2.239 1.986 1.483 2.897-1.314 1.583-.308 4.265 2.08 5.543 1.065.57 1.604 1.616 1.276 2.472-.645 1.679 2.141 2.109 3.144.485.34-.55 1.142-1 1.782-1 .639 0 .163.701-1.059 1.557-1.223.856-2.222 2.093-2.222 2.75.002 1.949 5.065 7.218 6.623 6.892 1.079-.226 1.279.339.799 2.25-.76 3.029 1.131 3.531 2.077.551.349-1.1 1.279-2 2.067-2 2.026 0 1.782.896-.817 3.004-2.638 2.139-1.837 3.648 1.102 2.075 1.896-1.014 1.986-.855 1.436 2.535-.555 3.421-.474 3.556 1.496 2.502 1.889-1.011 2.075-.85 2.001 1.741-.116 4.074.869 5.143 4.739 5.143 2.344 0 3.728-.603 4.441-1.935 1.38-2.578-.348-7.091-2.977-7.778-1.093-.286-1.988-1.143-1.988-1.904 0-1.685-2.171-1.812-3.764-.219-.885.885-1.021.286-.569-2.5.449-2.769.25-3.664-.817-3.664-.776 0-1.965-1.238-2.641-2.75-1.275-2.849-2.438-4.827-5.573-9.48-1.539-2.284-2.165-2.557-3.824-1.669-2.898 1.551-3.468.251-.827-1.887 2.027-1.642 2.122-2.069.901-4.025-.752-1.204-1.871-2.189-2.488-2.189-.66 0-.922-1.041-.636-2.535.554-2.901-2.097-6.465-4.81-6.465-.956 0-1.994-.667-2.307-1.483-.324-.844-1.232-1.229-2.107-.893-2.013.772-2.041-1.961-.038-3.624 1.877-1.558 4.5.263 4.5 3.122 0 1.033.45 1.878 1 1.878 1.581 0 1.163-4.694-.571-6.429-1.965-1.965-5.801-2.033-7.379-.131m46.066.727c-.064.916-.678 1.871-1.366 2.121-1.675.609.323 4.086 2.607 4.535 1.182.233 1.643-.398 1.643-2.25 0-1.415-.417-2.573-.927-2.573-.509 0-1.132-.787-1.384-1.75-.402-1.54-.471-1.55-.573-.083m74.539.662c-2.653 2.932-1.905 4.33.845 1.58 1.375-1.375 2.5-2.704 2.5-2.954 0-1.064-1.813-.319-3.345 1.374m91.881-.479c-1.441 1.053-1.716 2.152-1.254 5 .441 2.721.241 3.65-.786 3.65-1.635 0-2.361 1.043-3.508 5.042-.765 2.667-.549 3.134 2.079 4.493 1.613.834 2.933 2.18 2.933 2.991 0 1.744-4.072 2.002-5.713.361-1.208-1.208-3.644-.274-2.809 1.077.281.455-.132 1.073-.918 1.375-.786.301-1.918 1.462-2.516 2.579-.953 1.78-.579 2.35 3.029 4.628 4.239 2.676 6.177 2.665 3.947-.022-1.296-1.562-.835-1.888 2.23-1.576 2.641.268 2.098-1.865-.75-2.948-3.29-1.251-3.22-2.398.096-1.565 1.478.371 3.2.149 4-.514 1.741-1.445 1.823-5.081.154-6.833-1.02-1.071-.836-1.188 1-.633 2.448.74 2.955-.35 1.05-2.255-1.171-1.171-1.044-1.317 1.367-1.575 2.105-.226 2.083-2.625-.025-2.625-1.113 0-2.302-.45-2.642-1-.357-.578.59-1 2.241-1 5.12 0 7.162-4.968 3.43-8.345-2.218-2.008-4.183-2.098-6.635-.305m.827 3.147c-.346.901-.167 2.099.398 2.664 1.63 1.63 4.739.531 4.739-1.675 0-2.543-4.228-3.358-5.137-.989m-155.22 1.393c-.824.523-.967 1.101-.363 1.474.546.338 1.549-.056 2.229-.875 1.35-1.626.291-1.965-1.866-.599m23.487 6.36c-.959 3.579-.725 9.75.37 9.75.556 0 1-2.667 1-6 0-6.363-.386-7.42-1.37-3.75m-76.91.038c-.793 2.066.755 3.96 2.9 3.547 2.657-.512 2.461-4.252-.243-4.638-1.167-.166-2.363.324-2.657 1.091m59.804 3.292c.028 5.28-1.063 6.524-3.131 3.57-.895-1.278-2.058-1.832-3.048-1.452-.994.381-2.225-.214-3.247-1.568-1.444-1.915-1.874-2.014-3.518-.812-1.757 1.284-3.763 9.465-3.784 15.432-.012 3.44-1.018 2.736-4.287-3.001-2.634-4.621-3.034-4.959-3.342-2.828-.473 3.263 3.519 11.081 5.653 11.071 2.048-.009 4.056-4.037 4.856-9.742.873-6.225 2.553-5.201 2.16 1.316l-.336 5.566 5.448.307c3.665.207 5.903-.147 6.837-1.081.763-.764 2.891-2.535 4.729-3.936 2.997-2.287 3.412-3.221 4.042-9.097.794-7.422.218-8.284-5.556-8.31-3.496-.015-3.5-.01-3.476 4.565m146.059-2.714c-.431.697-.513 1.537-.183 1.867.895.895 1.871-.421 1.387-1.871-.338-1.016-.574-1.016-1.204.004M80 170.441c0 .793.45 1.719 1 2.059s1-.309 1-1.441S81.55 169 81 169s-1 .648-1 1.441m78.715 2.059c.328 2.2.938 5.125 1.355 6.5l.758 2.5.009-2.5c.005-1.375-.604-4.3-1.354-6.5l-1.364-4zM27 179c0 .55.45 1 1 1s1-.45 1-1-.45-1-1-1-1 .45-1 1m80 4.927c0 .59.675 1.073 1.5 1.073s1.5.478 1.5 1.063c0 .584-.787.967-1.75.85-2.149-.26-8.525 2.491-12.385 5.345-3.289 2.432-3.763 5.694-.934 6.434 1.064.278 1.707 1.088 1.433 1.803-.568 1.478 3.264 4.505 5.704 4.505.892 0 2.437.9 3.432 2 2.113 2.335 3.963 2.649 3.152.536-.344-.897.589-2.284 2.408-3.579 1.634-1.163 3.631-3.392 4.438-4.954 1.292-2.498 1.291-3.179-.009-5.671-.812-1.558-1.479-2.312-1.483-1.676-.003.664-.859.934-2.006.634-2.358-.617-2.582-1.865-.541-3.007 1.204-.674 1.243-1.248.224-3.291-1.253-2.514-4.683-4.026-4.683-2.065m23 .425c0 .743-1.35 2.764-3 4.491s-3 4.072-3 5.214c0 1.141-.496 3.001-1.102 4.134-.919 1.717-.671 2.491 1.493 4.655 2.273 2.273 2.771 2.413 4.002 1.125 1.095-1.145 1.22-2.787.567-7.414-.859-6.08-.215-9.457 1.142-5.991.517 1.32.78.426.828-2.816.038-2.613-.155-4.75-.43-4.75s-.5.608-.5 1.352m53 .244-2.5 1.525 3.375-.56c1.856-.309 4.245-.561 5.309-.561s1.656-.45 1.316-1c-.9-1.457-4.62-1.161-7.5.596M36.5 188c.678 2.136-1.028 2.855-1.78.75-.755-2.115-1.945-.035-1.244 2.175.804 2.533 1.346 2.551 4.475.147 2.092-1.608 2.257-2.117 1.127-3.478-1.847-2.225-3.339-1.99-2.578.406m158.671.097c-.72 1.154-1.029 2.378-.686 2.721s1.001.014 1.462-.732c.564-.913 1.732-1.132 3.572-.671 2.265.569 2.627.407 2.107-.946-.344-.898-.626-1.821-.626-2.051 0-1.419-4.748-.051-5.829 1.679m-21.921.15c-2.936.942-4.515 2.753-2.399 2.753 1.93 0 7.149-2.261 7.149-3.098 0-1.065-.459-1.032-4.75.345m-34.5 2.363c-4.256 2.176-4.75 2.781-4.75 5.82 0 4.109 4.217 8.145 9.557 9.147 1.923.36 3.956 1.513 4.517 2.561.958 1.791 1.17 1.725 3.544-1.096 1.389-1.651 2.224-3.489 1.856-4.085-.369-.595.078-1.91.993-2.921.955-1.055 1.254-2.09.703-2.431-.528-.326-1.229.107-1.558.964s-1.082 1.259-1.673.893-.876-1.184-.632-1.819c.243-.635-.626-2.714-1.932-4.621-1.306-1.906-2.375-3.071-2.375-2.589s-.787.173-1.75-.687c-1.598-1.427-2.164-1.352-6.5.864M184.5 189c-.34.55.057 1 .882 1s1.778-.45 2.118-1-.057-1-.882-1-1.778.45-2.118 1m31.666.596c-3.306 2.316-2.685 7.512 1.054 8.818 2.151.752 3.144.566 4.75-.887 2.573-2.328 2.584-4.973.03-7.527-2.415-2.415-2.913-2.449-5.834-.404m.792 2.954c-1.062 1.281-.997 1.84.378 3.214 1.497 1.497 1.818 1.51 3.201.128 1.688-1.688 1.019-4.892-1.022-4.892-.698 0-1.849.698-2.557 1.55M40 193c0 .55.45 1 1 1s1-.45 1-1-.45-1-1-1-1 .45-1 1m30 .917c0 1.228.646 2.083 1.573 2.083.932 0 1.442-.68 1.25-1.667-.486-2.509-2.823-2.853-2.823-.416m9.75-1.101c-1.749.202-2.75.912-2.75 1.95 0 1.291.258 1.376 1.227.407.97-.97 1.912-.435 4.49 2.55l3.263 3.777-1.36-3.5c-.748-1.925-1.531-3.95-1.74-4.5s-1.617-.858-3.13-.684m18.45.384c-.66.66-1.2 1.855-1.2 2.655 0 1.155.412 1.082 2-.355 2.054-1.859 2.617-3.5 1.2-3.5-.44 0-1.34.54-2 1.2m8.269-.15c-.95 1.538.351 2.53 1.635 1.246.718-.718.735-1.277.052-1.699-.56-.346-1.319-.142-1.687.453m33.99.017c-.363.586-.419 1.306-.126 1.6.717.716 2.667-.546 2.667-1.726 0-1.278-1.726-1.193-2.541.126M187.158 196c0 1.375.227 1.938.504 1.25.278-.687.278-1.812 0-2.5-.277-.687-.504-.125-.504 1.25m-79.808.53c-.37.965-1.281 1.309-2.468.932-2.985-.947-2.323 2.42.702 3.57 3.349 1.273 4.416.526 4.416-3.091 0-3.109-1.659-3.993-2.65-1.411m11.186 1.4c-.851 1.647-3.121 4.249-5.042 5.782-2.131 1.7-3.494 3.666-3.494 5.038 0 2.908-1.359 2.841-5.436-.269-1.872-1.428-3.977-2.26-4.86-1.921-.857.329-3.686-.343-6.286-1.493s-4.958-1.861-5.239-1.579c-.692.692-.652.715 7.321 4.142 6.344 2.727 7.284 3.517 10.029 8.427 2.686 4.805 3.477 5.491 6.981 6.061 7.249 1.178 7.493.545 3.404-8.82l-2.271-5.203 4.194-5.979c2.307-3.288 3.756-6.249 3.221-6.58s-1.67.746-2.522 2.394m22.971.047c-.35 1.103-.355 2.459-.013 3.014.929 1.502 4.086 1.22 5.506-.491 1.476-1.778-.065-2.035-1.8-.3-.933.933-1.2.724-1.2-.941 0-2.895-1.703-3.771-2.493-1.282m-64.478.984c-1.874 1.185-1.355 1.63 2.971 2.547l3.5.742-1.905-2.125c-2.14-2.387-2.491-2.477-4.566-1.164m130.483 1.025c-.965 1.067-1.489 2.631-1.165 3.477.426 1.11-.053 1.537-1.723 1.537-1.273 0-3.137.91-4.144 2.022-1.788 1.976-1.753 2.101 1.536 5.495l3.366 3.473 2.361-2.219c1.659-1.558 2.192-2.895 1.79-4.494-.6-2.391.366-2.978 2.08-1.264.685.685 1.78.198 3.375-1.5 1.703-1.813 1.95-2.513.886-2.513-.811 0-2.046.563-2.745 1.25-1.024 1.008-1.139.717-.591-1.5.714-2.891-.315-3.573-2.338-1.55-.667.667-1.2.756-1.2.2 0-.55.489-1.489 1.087-2.087.667-.667.719-1.315.134-1.677-.525-.324-1.743.284-2.709 1.35M130.2 204.2c-.66.66-1.2 1.948-1.2 2.861 0 1.236.645 1.538 2.515 1.181 3.159-.604 4.005-1.911 2.449-3.786-1.469-1.769-2.201-1.819-3.764-.256m-80.162 2.254c-1.642 1.979-.54 4.789 1.709 4.356 1.091-.21 1.753-1.245 1.753-2.74 0-2.898-1.728-3.705-3.462-1.616m29.366.935c-.32.833-.285 1.995.078 2.582.719 1.163 8.661 5.35 12.268 6.467 2.079.644 2.25.387 2.25-3.371 0-4.388-1.194-5.106-4.108-2.469-1.065.964-2.287 1.276-3.078.787-.721-.446-2.212-.827-3.313-.848-1.304-.024-1.905-.62-1.724-1.712.362-2.194-1.621-3.395-2.373-1.436m123.596.593c-1.285.816-1.184 1.269.711 3.168 1.978 1.983 2.279 2.039 2.857.533.714-1.861-.066-4.692-1.287-4.668-.429.009-1.456.444-2.281.967m-107.25 2.661c-.275.471-.185 1.724.2 2.784.572 1.574.807 1.649 1.283.409.645-1.681-.689-4.553-1.483-3.193m-35.99 4.651c-4.207 2.481-4.885 4.405-1.512 4.285 1.419-.05 2.612.75 3.237 2.171.544 1.238 1.239 2.25 1.545 2.25.883 0 3.062-9.043 2.426-10.071-.801-1.297-1.443-1.143-5.696 1.365m131.24.69c0 .542 1.264 2.399 2.809 4.128 2.563 2.868 3.001 3.024 5 1.775 1.205-.752 2.191-1.935 2.191-2.628 0-1.579-1.241-1.618-2.771-.088-.895.895-1.667.542-3.273-1.5-2.128-2.705-3.956-3.485-3.956-1.687m-51 1.075c0 .582.45.781 1 .441s1-.816 1-1.059-.45-.441-1-.441-1 .477-1 1.059m-73.284 2.845c-2.117 3.584-2.138 4.531-.145 6.525 2.228 2.227 3.989 1.958 6.764-1.035 2.993-3.228 4.37-1.658 2.21 2.52-.915 1.767-1.151 3.211-.584 3.562.525.324 1.66-.775 2.522-2.443 1.687-3.263 5.301-4.419 4.011-1.283-1.582 3.841-1.582 5.02 0 6.601 1.932 1.933 5.597 2.158 7.306.449.933-.933 1.2-.711 1.2 1 0 2.843 1.396 2.818 2.78-.05 1.011-2.098 1.09-2.114 1.168-.25.045 1.1.534 2.675 1.086 3.5.874 1.306 1.184 1.265 2.396-.319 1.332-1.741 1.419-1.731 2.047.248.81 2.551 4.873 3.688 8.034 2.248 2.061-.939 2.419-.795 2.799 1.123l.436 2.2.744-2.25c.765-2.317 2.51-3.111 2.51-1.143 0 .609.631.865 1.401.569.846-.324 1.696.328 2.142 1.643.697 2.057.763 2.024 1.165-.569.516-3.337 1.484-3.51 2.805-.5.751 1.712 1.817 2.25 4.463 2.25 2.881 0 3.639-.465 4.432-2.72 1.7-4.834-4.623-9.03-8.333-5.53-1.06 1-1.417 1-1.783 0-.636-1.733-3.233-1.568-3.93.25-.806 2.099-2.033 1.868-2.652-.5-.697-2.665-2.558-2.538-3.679.25l-.904 2.25-.064-2.271c-.085-3.045-4.405-5.121-7.124-3.423-2.493 1.557-2.714 1.519-3.213-.556-.349-1.448-.592-1.33-1.413.681l-.991 2.431-1.109-3.181c-1.302-3.733-2.683-4.079-3.723-.931-.743 2.246-.745 2.246-1.202-.25-.251-1.375-.859-2.917-1.349-3.426-.524-.545-.439-1.472.207-2.25.832-1.003.719-1.324-.465-1.324-.859 0-1.841.45-2.181 1-.797 1.289-4.5 1.306-4.5.02 0-.538-1.734-1.864-3.853-2.945l-3.852-1.965-2.177 2.945C70.92 224.675 69.504 226 68.97 226c-1.28 0-1.255-4.706.03-5.5 1.18-.729 1.351-3.5.216-3.5-.432 0-1.557 1.307-2.5 2.904M102 219c0 .55.45 1 1 1s1-.45 1-1-.45-1-1-1-1 .45-1 1m47 .281c0 .43 1.575.676 3.5.546s3.5-.521 3.5-.871c0-.349-1.575-.594-3.5-.546-1.925.049-3.5.441-3.5.871m36.655-.603c-.642.642-.068 6.067.985 9.315.382 1.178.851 1.007 2.221-.808.955-1.267 2.615-2.432 3.688-2.589 2.464-.362 1.97-1.5-1.888-4.346-3.273-2.415-3.95-2.627-5.006-1.572m-6.852 4.262c-1.394 1.097-2.82 1.709-3.169 1.361s-.634-.109-.634.532c0 .642-1.055 1.167-2.345 1.167-5.482 0-7.357 7.484-2.523 10.071 1.72.92 2.63.742 4.947-.972 1.562-1.154 3.308-2.099 3.881-2.099 1.514 0 1.274-2.222-.517-4.777-.856-1.223-1.153-2.223-.66-2.223s1.409 1.125 2.035 2.5c1.502 3.297 2.405 3.153 4.088-.65.947-2.139 1.082-3.645.423-4.691-1.483-2.349-2.753-2.4-5.526-.219M181 225c0 .55.45 1 1 1s1-.45 1-1-.45-1-1-1-1 .45-1 1m-97.542 4.685c-1.42 1.42-1.432 1.769-.107 3.095 1.88 1.88 4.649.902 4.649-1.642 0-2.599-2.573-3.422-4.542-1.453m89.042-.953c-2.417.604-3.496 2.116-2.8 3.927.652 1.702 3.281 1.672 5.567-.064 1.611-1.222 1.513-4.774-.124-4.479-.354.064-1.543.341-2.643.616m-10.849.976c-1.338.345-1.722 1.142-1.389 2.884.544 2.844.389 2.916-1.72.807-1.028-1.028-2.464-1.384-4.011-.996-1.929.484-2.473 1.354-2.721 4.351-.391 4.726-2.85 5.029-4.025.496-.656-2.532-1.373-3.25-3.246-3.25-1.526 0-2.636.731-3.039 2-.75 2.363-2.327 2.614-3.138.5-.317-.825-1.227-1.5-2.024-1.5-1.1 0-1.374 1.12-1.143 4.672.335 5.135 2.794 7.455 2.82 2.661.012-2.088.254-2.456.924-1.397.753 1.19 1.178 1.211 2.485.127 1.354-1.123 1.576-.997 1.576.898 0 1.322.501 2.037 1.25 1.785.709-.238 1.134-1.682.982-3.333l-.267-2.913 1.581 2.81c2.017 3.586 6.287 3.424 8.166-.31.92-1.827 1.262-2.029 1.273-.75.008.963.699 1.75 1.534 1.75 1.151 0 1.359-.667.859-2.75l-.66-2.75 2.455 2.25c3.5 3.207 4.166 2.823 3.467-2l-.616-4.25 1.44 3.25c1.646 3.716 4.07 4.532 2.97 1-1.506-4.835-2.416-6.745-3.159-6.634-.426.064-1.607.33-2.624.592m-58.966 5.75c-1.969 1.969-1.146 4.542 1.453 4.542 2.544 0 3.522-2.769 1.642-4.649-1.326-1.325-1.675-1.313-3.095.107m21.353 2.996c-1.642 1.979-.54 4.789 1.709 4.356 1.091-.21 1.753-1.245 1.753-2.74 0-2.898-1.728-3.705-3.462-1.616"/><path fill="#1976D2" fill-opacity=".264" fill-rule="evenodd" d="M116.684 33.533c-43.896 6.026-77.417 40.345-81.751 83.696-2.376 23.763 3.05 45.415 16.072 64.142 5.521 7.939 12.634 15.696 18.27 19.922 2.08 1.559 3.725 3.657 3.725 4.75 0 2.463-.541 2.451-3.842-.086-10.009-7.693-20.71-20.547-27.644-33.207-3.674-6.707-9.45-23.052-9.584-27.123-.039-1.17-.461-3.027-.937-4.127-1.793-4.138.328 8.17 2.758 16 10.034 32.338 37.084 57.786 70.807 66.616 16.542 4.331 43.068 2.946 58.84-3.073 2.736-1.044 2.794-1.182 1.038-2.466-1.579-1.155-1.659-1.604-.526-2.969 1.918-2.31 5.09-2.066 5.09.392 0 1.1-.525 2-1.167 2-.641 0-.912.254-.601.565s3.424-.874 6.917-2.634c22.203-11.188 40.793-32.725 49.149-56.941 2.586-7.494 5.215-20.811 4.29-21.735-.553-.553-1.085 1.571-2.568 10.245-1.381 8.078-5.948 20.021-11.098 29.021-3.955 6.914-5.922 8.505-5.922 4.793 0-.862 1.76-4.773 3.91-8.691 15.218-27.723 14.867-64.461-.879-91.96-16.462-28.749-43.351-45.184-78.531-47.997-3.3-.264-10.417.126-15.816.867M119 35.017C90.79 37.726 63.809 55.197 48.76 80.5c-15.276 25.685-16.835 58.89-4.051 86.25.835 1.787 2.093 3.25 2.794 3.25s1.212.787 1.136 1.75c-.089 1.123.512 1.696 1.68 1.6 1.22-.101 1.633.334 1.253 1.322-.727 1.897 1.101 5.328 2.839 5.328.738 0 2.964 3.088 4.948 6.863 4.644 8.838 5.948 9.965 8.051 6.962.874-1.248 1.59-2.845 1.59-3.548 0-1.486 1.616-1.708 2.462-.338.319.516-.033 1.303-.781 1.75-3.811 2.271-1.94 9.311 2.474 9.311 1.476 0 1.845.775 1.845 3.881 0 3.268.559 4.308 3.535 6.578 1.944 1.483 6.332 3.982 9.75 5.553 5.651 2.597 6.328 2.709 7.465 1.231 1.11-1.443 1.25-1.371 1.25.649 0 1.373.496 2.111 1.25 1.863 1.465-.483 2.326-4.755.958-4.755-.512 0-.716-1.125-.453-2.5s.826-2.5 1.25-2.5c1.112 0 2.215 6.732 1.481 9.044-.479 1.511-.15 1.956 1.447 1.956 1.29 0 2.078-.657 2.097-1.75.027-1.524.175-1.492 1.148.25 1.577 2.824 1.338 2.68 5.827 3.501 3.132.573 4.561.362 6.125-.905l2.041-1.653-2.586-5.846c-1.422-3.215-2.585-6.411-2.585-7.103 0-.691 1.582-2.463 3.516-3.938l3.516-2.682 2.894 2.313c1.592 1.272 3.156 3.276 3.476 4.453.765 2.818 3.716 3.92 5.17 1.93.619-.846 1.419-1.246 1.777-.888s.651-.549.651-2.015-.787-3.474-1.75-4.46-1.889-2.673-2.059-3.75c-.23-1.451.625-.957 3.31 1.915 2.124 2.271 3.387 4.478 3.056 5.34-1.009 2.628.505 3.365 3.4 1.654 1.796-1.061 3.496-1.38 4.682-.878 2.043.864 2.272.708-4.342 2.968-1.212.414-2.947 1.888-3.856 3.274-1.365 2.084-1.417 2.671-.296 3.38 1.054.669.967.863-.395.875-.963.008-1.75.465-1.75 1.015s.45 1 1 1 1 .9 1 2c0 1.29.667 2 1.878 2 2.8 0 4.455-2.583 3.789-5.915-.356-1.778-.092-3.318.678-3.957.973-.807 1.285-.211 1.365 2.608.129 4.572 2.33 6.4 6.327 5.253 1.595-.457 3.843-1.492 4.996-2.3s3.08-1.215 4.282-.905c1.8.464 1.979.311 1.017-.865-.643-.785-1.318-2.966-1.5-4.846-.183-1.88-.957-3.625-1.721-3.876-.842-.277-1.114-.012-.691.673.975 1.578-.065 1.409-2.947-.479-2.893-1.896-2.432-3.451.778-2.624 2.04.526 2.116.418.813-1.17-1.258-1.533-1.211-2.169.381-5.124 1.816-3.373 1.816-3.374-.869-6.565-2.655-3.156-2.678-3.162-2.022-.55 1.193 4.753-1.544 2.905-4.159-2.807-2.735-5.973-2.357-5.908-10.179-1.752-2.357 1.252-4.719 2.008-5.25 1.68s-.966.078-.966.903-.478 1.796-1.063 2.157c-.714.441-.962-1.177-.755-4.944.293-5.353.454-5.65 3.616-6.693 1.819-.601 4.478-.798 5.909-.439 1.43.359 3.882.122 5.448-.527 2.223-.921 3.177-.905 4.356.073.83.689 3.551 1.634 6.046 2.101 4.426.826 9.993 5.312 12.57 10.127.519.97 1.618 1.763 2.443 1.763 2.386 0 6.532-3.138 7.496-5.675.49-1.288 1.676-2.29 2.659-2.246 1.047.047 1.263.286.525.583-.687.278-1.25 1.04-1.25 1.693 0 .654-1.344 2.82-2.986 4.812l-2.987 3.623 2.267.569c1.246.313 3.268.307 4.491-.013 1.224-.32 2.933.005 3.797.722 1.291 1.072 1.715 1.07 2.382-.01.447-.723 1.309-1.007 1.916-.632s1.852.264 2.766-.248c1.451-.812 1.306-1.163-1.142-2.767-1.542-1.011-3.471-1.936-4.285-2.055s-1.962-.699-2.55-1.287c-.759-.759-.172-1.069 2.024-1.069 3.109 0 5.281-2.429 3.001-3.356-.657-.268-.182-.522 1.056-.565 2.454-.086 2.877.894 1.137 2.634-1.584 1.584-.078 3.483 2.191 2.762 1.446-.459 1.764-.226 1.309.96-.331.861-.164 1.565.371 1.565 1.693 0 6.242-4.084 6.242-5.604 0-.802.675-1.718 1.5-2.034 2.164-.831 1.853-3.732-1.005-9.372-3.256-6.426-10.495-10.598-10.495-6.049 0 2.513-1.85 3.636-3.337 2.025-.91-.986-.782-1.126.587-.645 1.895.667 2.53-1.721.75-2.821-.55-.34-1-.943-1-1.34 0-1.081 5.952-3.116 7.441-2.544.743.285 1.594-.487 1.995-1.809.44-1.452.895-1.828 1.229-1.015.665 1.622 3.335-.311 3.335-2.414 0-1.641-1.418-1.76-4.066-.343-1.577.844-1.933.706-1.93-.75.006-2.963 3.906-8.533 5.537-7.908 2.174.835 1.788-.586-1.481-5.453-1.617-2.408-2.722-4.596-2.456-4.862.819-.818 5.255 5.278 5.908 8.119.339 1.474 1.263 3.217 2.052 3.872.79.656 1.436 2.181 1.436 3.389 0 2.984-6.622 10.558-9.231 10.558-2.072 0-2.072.003.078 1.867 1.184 1.027 2.153 2.129 2.153 2.449s1.099 1.766 2.441 3.215l2.442 2.634 2.768-5.332c5.267-10.148 6.548-13.375 9.061-22.833 3.665-13.788 3.644-31.517-.054-45.283-4.603-17.134-11.514-29.59-23.009-41.467-2.794-2.888-5.602-5.25-6.24-5.25-1.665 0-1.445 4.985.376 8.5 1.816 3.507 1.899 15.218.155 21.775-1.394 5.238-5.081 10.229-9.088 12.302-2.433 1.258-5.727 1.509-16.379 1.249-14.898-.364-17.051-1.184-20.63-7.858-1.023-1.907-2.182-3.387-2.576-3.289-.394.099-1.403 2.349-2.242 5L137.5 100.5l-6.161.295c-5.451.262-6.345.034-7.75-1.972-2.418-3.452-2.035-3.823 3.942-3.823 3.566 0 5.66-.444 5.893-1.25.199-.687 1.143-9.35 2.098-19.25s2.084-18.384 2.511-18.854c.426-.469 1.52.717 2.431 2.638 1.32 2.78 1.594 5.906 1.346 15.353C141.294 93.38 142.863 95 162.5 95c15.026 0 17.265-.838 20.63-7.723 2.037-4.166 2.338-6.271 2.353-16.45.015-10.631-.184-11.924-2.242-14.5-1.242-1.555-2.674-3.789-3.183-4.965s-3.316-3.483-6.241-5.128c-16.039-9.017-35.74-13.048-54.817-11.217m-2.247 31.495c.621 7.739-1.229 17.403-4.177 21.818-3.803 5.697-7.268 6.667-23.826 6.668-8.112.001-14.75.4-14.75.887s1.237 1.72 2.75 2.741c2.375 1.603 4.804 1.857 17.825 1.865 14.899.009 15.117-.023 18.672-2.733 5.496-4.188 9.041-12.314 8.989-20.607-.04-6.318-2.819-15.157-5.236-16.651-.422-.261-.533 2.444-.247 6.012m40.903-2.379c-4.314 2.507-6.424 15.956-3.035 19.346 1.914 1.913 5.063 1.533 4.458-.538-.232-.793-.457-3.393-.5-5.779-.133-7.292 4.913-9.663 14.171-6.659 1.855.602 2.25.358 2.25-1.386 0-3.981-3.426-6.12-9.75-6.087-3.162.017-6.58.513-7.594 1.103m-70.998.617c-.254.412-.618 5.025-.809 10.25-.329 8.95-.233 9.5 1.651 9.5 1.762 0 2.036-.768 2.303-6.462.414-8.82 1.039-9.375 9.917-8.806 4.004.257 7.28.34 7.28.183s-.439-1.439-.975-2.85c-.947-2.49-1.237-2.565-9.941-2.565-4.931 0-9.173.338-9.426.75m147.863 20.226c-1.386 1.532-1.489 2.02-.426 2.009 2.519-.028 4.497-1.793 3.323-2.967-.754-.754-1.601-.473-2.897.958m6.117 9.524c-.316.825-.139 1.5.393 1.5.533 0 .969-.675.969-1.5s-.177-1.5-.393-1.5-.652.675-.969 1.5m.441 8.083c.048 1.165.285 1.402.604.605.289-.722.253-1.585-.079-1.917s-.568.258-.525 1.312m-3.909.417c.016.825.39 2.625.83 4 .644 2.01.806 2.108.83.5.016-1.1-.357-2.9-.83-4-.527-1.225-.848-1.419-.83-.5m-136.546 4.748c-2.682.893-6.455 3.114-8.386 4.935-3.259 3.073-3.467 3.627-2.906 7.722.891 6.501 4.497 13.329 7.325 13.87 2.074.396 2.343.069 2.343-2.849 0-1.812-.439-4.45-.975-5.861-.935-2.459-.826-2.565 2.622-2.565 3.11 0 3.426.207 2.333 1.524-.696.838-1.014 1.775-.708 2.081.937.937 4.728-1.581 4.728-3.14 0-1.783 8.971-2.094 10.694-.371.601.601 1.929.874 2.95.606 1.648-.433 1.6-.57-.434-1.221l-2.289-.733 2.785-2.785c3.21-3.21 4.255-2.427 4.279 3.207.02 4.972.871 6.832 3.122 6.832 2.375 0 2.543-4.55.396-10.714-.808-2.317-1.216-4.87-.908-5.673.636-1.657-2.378-3.598-4.443-2.862-.741.264-2.635-.471-4.209-1.635-3.52-2.602-11.152-2.756-18.319-.368m140.216 4.181c-2.14 3.763-1.452 4.329 2.731 2.25 2.235-1.11 3.349-2.356 3.288-3.679-.076-1.676-.165-1.716-.548-.25-.559 2.137-3.041 2.319-3.488.255-.216-1.001-.871-.532-1.983 1.424m-225.022 2.289c.533.533 1.805.793 2.826.576 1.375-.291 1.123-.543-.97-.969-1.825-.373-2.482-.233-1.856.393m124.236 6.128c-.58.58-1.054 1.619-1.054 2.31 0 .69-1.125 2.913-2.5 4.939s-2.5 4.296-2.5 5.045-.45 1.36-1 1.36-1-.675-1-1.5c0-4.037-4.677 1.094-5.469 6-.356 2.2-.835 4.936-1.065 6.08s-2.004 2.933-3.942 3.977c-3.28 1.767-4.801 4.443-2.524 4.443.55 0 1-.498 1-1.107s.675-.848 1.5-.531c.864.331 1.5.018 1.5-.738 0-.723.9-2.129 2-3.124s2-2.779 2-3.964c0-1.184.661-3.027 1.468-4.095.808-1.067 1.505-2.841 1.55-3.941.054-1.329.819-.491 2.282 2.5l2.2 4.5.5-5.189c.388-4.032 1.231-6.012 3.777-8.877 2.268-2.552 3.088-4.284 2.662-5.625q-.615-1.937.723-1.754c2.491.339 4.838-.051 4.836-.805-.004-1.165-5.762-1.086-6.944.096M153.5 120c.34.55 1.379 1.016 2.309 1.035.93.02 2.816.722 4.191 1.561l2.5 1.525-3.101-.506c-4.206-.686-7.643.306-6.987 2.016.289.753.089 1.369-.443 1.369-.533 0-.969.693-.969 1.539 0 1.603-.33 1.431-4.535-2.36-2.969-2.678-.611 2.788 2.834 6.571 3.018 3.314 1.324 2.736-2.932-1-2.671-2.344-3.393-2.669-2.59-1.168 1.495 2.796 2.897 3.769 8.304 5.764 2.519.93 5.538 2.582 6.708 3.672S161.61 142 162.458 142c2.177 0 1.93 3.722-.327 4.93-1.027.55-2.126.741-2.442.426-.315-.316-2.877.919-5.693 2.744-3.85 2.494-4.998 3.784-4.628 5.199.592 2.264-2.84 8.364-3.817 6.784-.368-.596-.416-1.492-.107-1.993.762-1.233-.412-4.09-1.682-4.09-1.264 0-.273 6.889 1.203 8.365.717.717 2.256-.151 4.978-2.809 3.782-3.693 4.065-3.795 7.076-2.548 4.81 1.992 5.863 4.506 6.411 15.302.272 5.368.764 10.194 1.092 10.725 1.418 2.295 2.478.608 2.478-3.943 0-4.729.164-5.012 4.498-7.75 2.474-1.563 4.499-3.404 4.5-4.092.003-1.804-.63-1.599-5.578 1.805-4.921 3.386-4.908 3.397-5.83-4.555-.443-3.821-1.221-5.52-3.296-7.206-3.047-2.474-2.995-2.643 1.206-3.962 4.445-1.394 6.3-6.079 7-17.685.688-11.394-.082-13.373-6.475-16.634-4.103-2.093-10.621-2.786-9.525-1.013m9.5 4.909c0 .465.675 1.406 1.5 2.091s1.5 1.94 1.5 2.789.279 1.265.62.924c1.035-1.035-.501-5.454-2.111-6.071-.83-.319-1.509-.198-1.509.267m-152.548 4.737C8.662 131.577 8 133.421 8 136.472c0 5.563 3.231 8.738 9.048 8.891 5.396.141 8.952-3.565 8.952-9.33 0-7.889-10.253-12.101-15.548-6.387m224.283-.109c-3.343 3.343-4.125 6.809-2.322 10.294 2.131 4.121 3.917 5.248 8.614 5.436 5.402.215 8.973-3.421 8.973-9.136 0-7.989-9.686-12.173-15.265-6.594m-220.862.971c-4.854 2.637-4.035 10.008 1.321 11.891 6.704 2.358 10.896-6.823 5.171-11.326-3.08-2.423-3.074-2.422-6.492-.565M119 130c0 .55.423 1 .941 1s1.219-.45 1.559-1-.084-1-.941-1-1.559.45-1.559 1m118.695.601c-2.478 1.343-2.769 2.004-2.5 5.678.245 3.333.85 4.461 3.055 5.689 2.47 1.376 3.03 1.376 5.5.001 4.031-2.245 4.381-7.934.669-10.854-3.155-2.482-3.102-2.478-6.724-.514m-132.152.33c-.683 1.105.894 2.299 1.818 1.375.95-.951.773-2.306-.302-2.306-.518 0-1.2.419-1.516.931M98 136.8c0 .44.54 1.34 1.2 2 1.484 1.484.379 1.545-2.516.14-1.526-.742-1.281-.284.816 1.519a185 185 0 0 1 5.5 4.951c1.375 1.304 3.498 2.878 4.718 3.499 1.834.932 2.06 1.544 1.305 3.532-.668 1.756-.525 2.728.531 3.604 1.209 1.003 1.446.688 1.446-1.923 0-1.717.45-3.122 1-3.122s1 .54 1 1.2c0 .881.296.904 1.113.087 1.62-1.62.52-2.758-4.163-4.304-3.401-1.122-4.692-2.329-7.146-6.676C100.13 136.569 98 134.571 98 136.8m-22.333 5.867c-.367.366-.667 1.131-.667 1.7 0 .626.466.567 1.183-.15.651-.651.951-1.416.667-1.7s-.817-.217-1.183.15m58.401 3.575c-.038.957.832 2.303 1.932 2.99s2 1.8 2 2.473c0 1.525 3.188 3.295 5.934 3.295 4.324 0 .704-4.324-4.554-5.44-1.78-.378-3.576-1.606-4.182-2.861-.854-1.768-1.076-1.857-1.13-.457m39.391-.175c-.363.586-.445 1.281-.183 1.543s.743-.218 1.069-1.067c.676-1.762.1-2.072-.886-.476m5.041.933c-1.928.829-1.921.862.191.93 1.205.038 2.469-.38 2.809-.93.731-1.183-.248-1.183-3 0M69 150.056c-1.375 1.107-4.231 2.928-6.347 4.048-2.116 1.119-3.616 2.267-3.333 2.55.602.601 11.145-5.98 12.129-7.571.951-1.54.403-1.322-2.449.973m102.564.651c-.542 1.425-.428 1.54.56.56.684-.679.991-1.486.683-1.793-.308-.308-.867.247-1.243 1.233M191.5 151c.34.55 1.293 1 2.118 1s1.222-.45.882-1-1.293-1-2.118-1-1.222.45-.882 1m-112 2c.34.55.816 1 1.059 1s.441-.45.441-1-.477-1-1.059-1-.781.45-.441 1m9.052 1.404c.756 3.897-.955 7.68-4.569 10.101-3.869 2.592-3.843 3.771.04 1.834 1.662-.83 3.912-3.252 5-5.384 2.039-3.997 2.677-8.506 1.062-7.508-.503.311-1.18 0-1.506-.691-.325-.691-.337.051-.027 1.648m47.084 5.09c.316.822.984 1.241 1.485.931 1.049-.648.207-2.425-1.149-2.425-.5 0-.651.672-.336 1.494m39.057-.693c-3.058.622-1.478 3.606 2.318 4.379 1.919.391 4.727 1.013 6.239 1.382 2.763.674 3.289.007 2.212-2.801-.344-.895-1.553-1.254-3.339-.992-1.551.227-3.43-.202-4.212-.963-.776-.755-2.224-1.207-3.218-1.005m-114.678 2.39c-.008.93.435 1.969.985 2.309 1.266.782 1.266-.542 0-2.5-.835-1.293-.971-1.266-.985.191m174.235-.473c-1.718.616-1.578 2.282.191 2.282 1.656 0 2.967-1.649 1.825-2.296-.421-.239-1.328-.232-2.016.014m6.274 3.207c-.362 1.141-1.078 2.075-1.591 2.075s-.933.9-.933 2 .36 2 .799 2c.971 0 3.589-6.945 2.884-7.65-.275-.275-.797.433-1.159 1.575m-102.889 2.509c-1.596 2.436-2.486 15.75-.95 14.214 1.678-1.678 3.017-7.546 1.962-8.601-.767-.767-.732-1.984.122-4.245 1.508-3.995.994-4.615-1.134-1.368m-4.951 2.316c-.319 2.063-.87 4.875-1.224 6.25-.612 2.373-.566 2.358.91-.292 1.99-3.573 3.173-9.708 1.873-9.708-.539 0-1.24 1.688-1.559 3.75M61.5 166.899c-1.95.785-1.945.822.198 1.504 3.217 1.023 16.302 1.473 16.302.561 0-.428-2.362-.985-5.25-1.237-2.888-.251-6.15-.722-7.25-1.046-1.1-.323-2.9-.226-4 .218m31.667 7.352c-.183 3.986-.126 7.023.127 6.749.89-.968 1.855-14 1.036-13.999-.457.001-.98 3.264-1.163 7.25m-68.624-5.32c-.317.512-.118 1.213.441 1.559 1.193.737 3.016-.199 3.016-1.549 0-1.217-2.707-1.225-3.457-.01m158.641 4.565c-.628 1.377-.731 2.504-.23 2.504.984 0 2.506-3.873 1.8-4.58-.236-.235-.943.698-1.57 2.076m3.816-1.437c0 .582.45.781 1 .441s1-.816 1-1.059-.45-.441-1-.441-1 .477-1 1.059m48-.681c0 .207.675.937 1.5 1.622 1.229 1.02 1.5.951 1.5-.378 0-.892-.675-1.622-1.5-1.622s-1.5.17-1.5.378m-88 1.463c0 1.141 5.833 2.659 6.738 1.754.863-.863.164-1.275-3.488-2.058-1.964-.42-3.25-.3-3.25.304m-80.376 1.698c-.965 2.514-.681 3.163.498 1.136.584-1.004.851-2.036.593-2.293-.257-.258-.749.263-1.091 1.157m41.515 1.537c-2.93 2.388-4.138 2.439-4.143.174q-.005-1.746-1.985 1.5c-1.342 2.201-2.75 3.25-4.361 3.25-1.309 0-3.524.9-4.923 2-1.398 1.1-2.956 2-3.46 2-1.85 0-5.267 4.703-5.267 7.249 0 5.333 1.584 7.551 5.392 7.551 3.293 0 3.483-.173 2.975-2.714-.451-2.257.075-3.186 3.117-5.506 2.013-1.535 4.865-3.11 6.338-3.5 1.485-.393 3.269-1.925 4.003-3.438 1.047-2.155 1.783-2.588 3.5-2.061 2.64.81 2.034.045 4.489 5.669 1.14 2.613 2.601 4.75 3.246 4.75.668 0 .927-.753.602-1.75-2.263-6.935-3.257-9.25-3.974-9.25-.453 0-.532-.918-.176-2.039.578-1.819.342-1.963-2.182-1.334-2.533.631-2.689.534-1.485-.928 2.125-2.58.899-3.747-1.706-1.623M157 177.941c0 1.682.45 3.059 1 3.059s1-1.098 1-2.441-.45-2.719-1-3.059c-.583-.361-1 .656-1 2.441m76.653.073c.334 1.669-.048 3.069-1.067 3.914-.872.724-1.586 2.232-1.586 3.349 0 1.928.097 1.945 1.885.327 1.037-.938 2.131-2.921 2.43-4.405s.84-3.461 1.201-4.393c.491-1.271.151-1.657-1.364-1.543-1.618.122-1.916.669-1.499 2.751M154 179c0 .55.477 1 1.059 1s.781-.45.441-1-.816-1-1.059-1-.441.45-.441 1m-89.911 6.167c.54 1.008 1.191 1.833 1.446 1.833.256 0 .465-.825.465-1.833s-.651-1.834-1.446-1.834c-1.092 0-1.206.449-.465 1.834M124.5 184c-.34.55-.141 1 .441 1s1.059-.45 1.059-1-.198-1-.441-1-.719.45-1.059 1m47.5 2c0 .55.45 1 1 1s1-.45 1-1-.45-1-1-1-1 .45-1 1m55.709 4.004c-.366 1.402-1.037 1.807-2.232 1.349-1.396-.536-1.58-.254-1.009 1.545.814 2.567-1.733 7.102-3.991 7.102-.812 0-1.477.45-1.477 1s.675 1 1.5 1c1.737 0 5.5-3.484 5.5-5.092 0-.601.9-2.237 2-3.635 2.083-2.648 2.639-5.273 1.117-5.273-.486 0-1.12.902-1.408 2.004M34 189.941c0 .518.445 1.216.989 1.552.566.35.734-.051.393-.941-.665-1.732-1.382-2.049-1.382-.611M121.5 194c.34.55.816 1 1.059 1s.441-.45.441-1-.477-1-1.059-1-.781.45-.441 1m96.5 0c-1.213.784-1.069.972.75.985 1.238.008 2.25-.435 2.25-.985 0-1.253-1.061-1.253-3 0m-110.401 3.604c-.369.961-1.247 1.361-2.191.999-.993-.381-1.422-.145-1.161.637.227.683 1.502 1.246 2.833 1.251 1.752.006 2.508-.612 2.74-2.241.365-2.574-1.296-3.057-2.221-.646m-16.194 5.291c1.401 1.548 7.595 3.547 7.595 2.452 0-.428-7.766-4.347-8.615-4.347-.382 0 .077.853 1.02 1.895m-10.216-.167c-3.09.381-4.128 2.6-1.356 2.897.642.069 1.669.181 2.284.25.626.07.876 1.044.569 2.216-.466 1.784-.202 2.004 1.801 1.502 1.435-.36 2.527-.104 2.81.659.336.904.978.748 2.333-.567 1.825-1.77 1.816-1.859-.38-3.66-1.237-1.015-2.25-2.336-2.25-2.935s-.562-1.018-1.25-.93-2.74.344-4.561.568M159 205.383c0 .761.936 1.628 2.079 1.927 1.561.409 1.935.168 1.5-.965-.318-.83-.579-1.697-.579-1.927s-.675-.418-1.5-.418-1.5.623-1.5 1.383m4.949 1.898c-1.962 2.805-1.389 5.719 1.124 5.719 1.06 0 1.944-.113 1.965-.25 1.05-6.95 1.028-7.748-.206-7.719-.733.018-2.03 1.03-2.883 2.25M50 208.5c0 1.03.655 1.52 1.75 1.31 2.108-.406 1.975-2.181-.197-2.633-.906-.189-1.553.362-1.553 1.323m164.458.568c-.363.588-1.29.827-2.059.532-.819-.315-1.399.091-1.399.977 0 .833-1.125 2.639-2.5 4.014-2.759 2.759-3.03 3.409-1.421 3.409 1.103 0 9.921-8.373 9.921-9.421 0-.99-1.848-.635-2.542.489M57.01 210.981c-.583 1.09-2.286 2.647-3.785 3.46L50.5 215.92l2.679.04c3.126.047 5.821-2.282 5.821-5.031 0-2.465-.652-2.448-1.99.052m147.533-1.05c-.317.512-.118 1.213.441 1.559s1.016-.074 1.016-.931c0-1.757-.6-2.015-1.457-.628m-49.214 5.129c1.359 3.602 2.015 3.676 3.51.393 1.398-3.066 1.503-4.539.176-2.453-.768 1.207-1.329 1.268-2.875.31-1.803-1.117-1.853-1.01-.811 1.75m-86.258 7.355c-.746.898-1.059 1.93-.697 2.292.934.934 2.932-1.29 2.452-2.729-.276-.828-.818-.693-1.755.437M64.158 224c0 1.375.227 1.938.504 1.25.278-.687.278-1.812 0-2.5-.277-.687-.504-.125-.504 1.25m132.488.501c-1.57.819-3.277 1.227-3.794.908-1.376-.851-3.852 1.537-3.852 3.713 0 2.01 1.48 2.528 2.502.875.34-.551 2.617-1.912 5.059-3.025 2.441-1.112 4.439-2.461 4.439-2.997 0-1.339-1.013-1.217-4.354.526M73.02 227.476c-.696.838-1.997 1.531-2.892 1.539-1.417.014-1.433.142-.128.985 2.179 1.408 2.8 1.241 4.046-1.086 1.374-2.566.697-3.515-1.026-1.438M78.15 230c-.635 1.821-.674 3-.098 3 .521 0 .948-.81.948-1.8s.54-2.34 1.2-3c.815-.815.846-1.2.098-1.2-.606 0-1.573 1.35-2.148 3m106.36-.25c-.409 1.238-1.35 2.25-2.091 2.25s-1.83.9-2.419 2c-1.402 2.62.864 2.74 3.987.212 1.54-1.247 2.065-2.533 1.737-4.25l-.47-2.462zm-100.967 1.181c-.317.512-.118 1.213.441 1.559 1.193.737 3.016-.199 3.016-1.549 0-1.217-2.707-1.225-3.457-.01m88.707-.225c-1.238.238-2.25.852-2.25 1.364 0 1.375 2.227 1.073 4.441-.602 1.967-1.488 1.827-1.536-2.191-.762m-79.481 6.25c-.691 2.461-.278 3.886.812 2.797.319-.32.423-1.632.229-2.917l-.351-2.336zm9.898-.289c-1.268 1.267-.659 2.333 1.333 2.333 1.111 0 2-.667 2-1.5 0-1.522-2.115-2.051-3.333-.833M168 237.933c0 1.371-.474 1.822-1.5 1.429-.825-.317-1.5-.078-1.5.531 0 1.623-2.074 1.35-4.171-.548-1.728-1.564-1.829-1.509-1.829 1 0 2.949-1.709 3.578-2.7.995-.545-1.422-.752-1.35-1.436.5-1.012 2.734-6.269 3.011-7.784.41-.871-1.496-1.024-1.351-1.05 1-.027 2.484.31 2.75 3.481 2.75 1.931 0 5.506-.938 7.946-2.085 2.439-1.146 5.246-1.827 6.239-1.513s3.154-.32 4.804-1.409 3.986-1.983 5.191-1.986c1.205-.004 2.51-.523 2.899-1.153.499-.807-.08-.948-1.961-.476-1.469.369-3.561.194-4.65-.389-1.666-.892-1.979-.743-1.979.944M86 238c0 .55.45 1 1 1s1-.45 1-1-.45-1-1-1-1 .45-1 1m11.693 2.359c-.333.867-.145 1.861.417 2.209 1.557.962 2.189-.212 1.131-2.102-.842-1.505-1.008-1.516-1.548-.107M124 240.5c0 1.03.655 1.52 1.75 1.31 2.108-.406 1.975-2.181-.197-2.633-.906-.189-1.553.362-1.553 1.323m6.681 2.863c-.95 1.451-2.392 2.637-3.204 2.637s-1.477.45-1.477 1 .89 1 1.977 1c2.138 0 5.456-4.201 4.821-6.105-.214-.642-1.166.018-2.117 1.468m-18.107.304c-.319.833.228 1.333 1.457 1.333 1.083 0 1.969-.6 1.969-1.333 0-.734-.656-1.334-1.457-1.334s-1.687.6-1.969 1.334m26.997-.096c-2.115 2.116-1.996 2.429.929 2.429 1.833 0 2.5-.533 2.5-2 0-2.403-1.293-2.565-3.429-.429M105 244c-1.165.753-.872.973 1.309.985 1.621.009 2.548-.408 2.191-.985-.767-1.242-1.579-1.242-3.5 0m15 .5c0 .825.73 1.5 1.622 1.5 1.329 0 1.398-.271.378-1.5-.685-.825-1.415-1.5-1.622-1.5s-.378.675-.378 1.5"/></svg>